<?xml version="1.0" standalone="no"?>
<!DOCTYPE svg PUBLIC "-//W3C//DTD SVG 20010904//EN"
 "http://www.w3.org/TR/2001/REC-SVG-20010904/DTD/svg10.dtd">
<svg version="1.0" xmlns="http://www.w3.org/2000/svg"
 width="359.000000pt" height="359.000000pt" viewBox="0 0 359.000000 359.000000"
 preserveAspectRatio="xMidYMid meet">
<metadata>
Created by potrace 1.14, written by Peter Selinger 2001-2017
</metadata>
<g transform="translate(0.000000,359.000000) scale(0.100000,-0.100000)"
fill="#000000" stroke="none">
<path d="M0 2324 c0 -1140 2 -1266 16 -1260 10 4 13 2 8 -7 -5 -9 -4 -9 5 -1
14 13 33 77 20 69 -5 -4 -10 -16 -10 -28 -1 -17 -2 -18 -6 -5 -2 10 -9 18 -14
18 -5 0 -9 5 -9 11 0 5 5 7 10 4 6 -3 10 -1 10 5 0 6 11 15 25 20 27 10 35 52
13 66 -8 5 -9 2 -5 -9 4 -11 1 -17 -8 -17 -8 0 -15 6 -15 13 0 18 29 56 30 39
0 -7 5 -10 10 -7 6 4 7 11 4 17 -4 6 -2 8 4 4 6 -3 13 -2 16 3 10 16 -14 24
-29 11 -13 -10 -15 -8 -13 15 1 15 11 31 21 37 13 7 17 7 13 0 -4 -6 2 -8 14
-5 25 7 26 23 3 24 -11 0 -13 3 -5 6 19 7 14 26 -5 19 -15 -5 -15 -4 1 9 12 9
15 15 7 15 -10 0 -11 3 -2 14 9 11 9 15 -1 19 -7 3 -3 6 10 6 28 1 30 21 1 21
-13 0 -18 4 -13 12 5 8 1 9 -12 4 -14 -5 -16 -4 -8 4 6 6 31 11 55 12 28 0 50
6 60 17 16 17 15 19 -17 30 -37 14 -43 26 -17 34 10 2 27 8 38 13 18 7 19 6 5
-12 -14 -19 -14 -19 8 0 23 20 30 56 11 56 -5 0 -8 -3 -6 -7 3 -5 -5 -8 -17
-8 -28 0 -28 35 0 45 25 9 54 1 49 -13 -3 -7 -6 -43 -9 -80 l-4 -69 39 5 c38
4 45 -2 40 -35 0 -4 5 -5 12 -2 7 2 13 -3 14 -14 1 -15 -5 -19 -32 -18 -30 1
-33 3 -30 28 3 21 -1 26 -16 25 -21 -1 -25 -13 -7 -19 9 -3 7 -10 -6 -24 -18
-17 -18 -19 -3 -22 9 -2 17 -8 17 -13 0 -6 -4 -7 -10 -4 -6 3 -10 2 -10 -3 0
-22 31 -21 40 1 5 12 9 18 10 12 0 -5 5 -3 10 5 8 13 10 12 10 -2 0 -10 5 -18
11 -18 5 0 7 5 4 10 -3 5 -2 10 3 10 11 0 20 -30 15 -47 -3 -7 -16 -13 -29
-13 -21 0 -23 -3 -15 -18 6 -12 5 -23 -5 -37 -8 -10 -14 -13 -14 -6 0 7 -5 9
-12 5 -7 -4 -5 2 5 13 17 19 17 22 2 37 -20 20 -31 20 -39 1 -3 -9 0 -15 10
-15 11 0 12 -4 4 -19 -14 -27 -13 -54 2 -45 7 4 8 3 4 -5 -4 -6 -2 -19 5 -27
10 -12 10 -15 -2 -12 -10 2 -14 -10 -16 -51 -2 -53 -1 -54 13 -26 8 16 17 44
19 63 4 33 29 82 41 82 4 0 1 -6 -5 -14 -14 -17 -23 -148 -10 -140 5 3 6 -2 3
-11 -4 -10 -14 -15 -25 -12 -11 3 -17 1 -13 -4 3 -5 -2 -6 -10 -3 -11 4 -16 0
-16 -11 0 -11 5 -15 14 -12 8 3 17 1 20 -6 2 -7 5 -4 5 6 1 9 5 17 10 17 12 0
20 -70 9 -76 -5 -3 -4 -12 3 -20 6 -8 7 -14 2 -14 -5 0 -8 -13 -5 -30 2 -16 8
-27 13 -25 4 3 6 12 2 20 -4 11 -1 13 11 9 10 -4 16 -1 16 7 0 7 3 9 7 6 3 -4
12 -2 20 4 10 9 13 7 13 -10 0 -11 -4 -21 -9 -21 -5 0 -11 -9 -14 -21 -4 -16
-2 -19 11 -15 10 4 7 -2 -7 -12 -20 -16 -22 -22 -12 -40 8 -15 8 -22 1 -22
-21 0 -25 4 -22 20 2 11 -5 20 -19 23 -11 3 -19 3 -16 0 3 -3 2 -16 -3 -29 -7
-18 -6 -22 5 -18 9 4 12 0 9 -14 -4 -12 0 -19 10 -19 9 0 16 4 16 9 0 4 5 8
11 8 6 0 9 -7 5 -15 -3 -8 -1 -15 4 -15 12 0 10 -39 -3 -68 -6 -12 -17 -22
-25 -22 -9 0 -13 -7 -9 -20 3 -11 1 -18 -4 -14 -5 3 -9 0 -9 -6 0 -6 8 -10 18
-8 10 2 16 11 14 21 -2 9 1 17 7 17 5 0 12 8 15 18 3 9 3 -3 1 -28 -2 -25 1
-50 7 -57 6 -8 3 -15 -11 -23 -16 -8 -19 -8 -16 3 4 8 -2 13 -15 13 -11 0 -20
-4 -20 -8 0 -4 -13 -8 -30 -8 -25 0 -29 -4 -27 -22 1 -13 7 -26 12 -30 6 -5 6
-8 -2 -8 -10 0 -11 -10 -4 -104 1 -12 6 -16 16 -12 16 6 16 5 20 -32 3 -27
-13 -40 -27 -21 -8 11 -9 10 -5 -3 3 -9 1 -19 -6 -22 -7 -3 -4 -4 7 -3 11 1
22 -7 27 -21 7 -18 6 -22 -4 -19 -6 2 -11 10 -9 16 1 7 -2 10 -8 6 -6 -3 -8
-11 -5 -16 4 -5 1 -9 -5 -9 -6 0 -10 -26 -8 -70 1 -40 5 -65 10 -58 5 9 8 10
8 1 0 -6 -5 -15 -10 -18 -14 -9 -13 -135 1 -135 6 0 9 7 6 15 -4 8 -2 17 3 20
6 4 10 -3 10 -14 0 -11 -7 -24 -16 -29 -12 -7 -9 -9 15 -10 17 0 31 2 32 6 0
4 2 17 5 30 3 15 0 21 -7 16 -6 -3 -3 6 7 22 11 15 14 25 7 21 -9 -5 -12 1
-12 20 0 15 0 46 0 68 0 139 3 164 18 168 13 4 13 5 -1 6 -10 0 -18 8 -18 17
0 8 4 12 10 9 6 -3 7 1 4 9 -3 9 -10 16 -15 16 -12 0 -11 11 1 30 9 13 11 13
19 0 9 -12 11 -12 17 3 3 9 12 17 20 17 22 0 14 -90 -10 -114 -17 -17 -17 -19
-2 -28 14 -8 15 -13 5 -24 -6 -8 -19 -14 -28 -14 -14 -1 -14 -2 1 -13 9 -7 18
-26 20 -43 2 -16 8 -32 13 -36 6 -5 5 -8 -3 -8 -9 0 -11 -23 -10 -90 l3 -90
28 0 27 0 0 114 c0 66 4 117 10 121 10 6 15 -11 9 -30 -1 -5 -3 -54 -5 -107
l-2 -98 63 0 63 0 1 108 c1 62 -3 101 -8 94 -6 -11 -10 -9 -14 7 -3 14 0 21
10 21 8 0 12 4 8 9 -3 5 -1 12 4 15 5 4 12 -2 14 -11 3 -10 5 17 5 60 -1 42
-5 77 -9 77 -5 0 -10 -12 -10 -27 -1 -16 -5 6 -10 47 -8 80 -2 143 12 134 5
-3 9 11 9 30 0 25 -4 36 -15 36 -15 0 -21 21 -8 33 3 4 7 22 9 39 2 24 1 28
-5 14 -5 -13 -10 -16 -15 -8 -4 6 -2 20 4 31 7 13 7 22 0 26 -5 3 -10 11 -10
16 0 6 5 7 11 3 8 -4 9 3 4 24 -3 18 -2 33 4 37 16 9 13 68 -3 101 -10 19 -12
33 -5 45 14 26 12 82 -3 73 -8 -5 -9 -2 -5 10 4 10 7 24 7 32 0 11 5 12 18 5
16 -8 17 -1 15 97 0 59 -2 109 -3 112 -2 5 -5 31 -8 68 -2 18 -8 22 -37 22
-21 0 -35 -5 -35 -12 0 -10 -2 -10 -9 0 -9 14 -32 13 -43 -3 -5 -6 -8 -4 -8 4
0 11 -5 10 -20 -4 -20 -18 -21 -18 -14 0 5 13 4 16 -4 11 -15 -9 -14 -23 -18
214 -2 113 -4 218 -4 235 -1 16 -7 36 -13 44 -9 12 -9 13 1 7 13 -8 13 -12 16
134 0 52 -1 97 -5 100 -3 3 -2 20 3 38 l9 32 84 0 c61 0 85 -4 86 -12 1 -7 1
-78 1 -158 0 -88 3 -137 8 -125 7 16 9 11 9 -20 0 -31 -2 -36 -9 -20 -6 14 -8
4 -8 -35 1 -30 3 -43 5 -27 2 15 9 25 14 21 6 -4 9 24 8 75 -1 44 -6 78 -10
75 -5 -3 -9 4 -9 15 0 10 5 21 11 23 6 2 12 21 12 43 2 31 6 40 19 39 11 -1
15 4 10 15 -4 13 -3 14 9 5 18 -14 49 -14 50 0 0 6 4 2 9 -9 8 -18 9 -18 9 6
1 27 -24 37 -33 12 -3 -7 -11 -13 -18 -13 -9 0 -9 3 1 9 10 7 2 9 -25 6 -35
-2 -40 0 -42 19 -1 11 -4 40 -6 64 -3 30 0 45 9 48 7 3 11 14 8 24 -13 50 32
101 61 70 8 -10 7 -12 -9 -6 l-20 6 20 -16 c14 -11 16 -18 7 -21 -6 -3 -10 -9
-7 -14 4 -5 0 -6 -8 -3 -18 6 -32 -25 -17 -40 14 -14 13 -29 -2 -20 -7 5 -9 2
-5 -9 3 -9 1 -18 -6 -21 -7 -2 -2 -5 11 -5 13 -1 30 -8 39 -16 8 -9 18 -13 21
-10 4 3 0 10 -8 15 -12 8 -12 10 4 10 25 0 13 12 -14 14 -11 0 -20 4 -20 9 0
4 0 14 0 23 0 10 6 14 15 10 9 -3 15 0 15 10 0 9 -5 12 -12 8 -7 -4 -8 -3 -4
4 11 18 23 14 28 -6 4 -15 14 -18 48 -16 56 3 64 14 11 14 -24 0 -40 4 -36 10
3 5 13 6 22 3 11 -4 14 -3 9 5 -4 7 -2 12 3 12 6 0 11 -5 11 -12 0 -6 3 -9 6
-5 3 3 2 13 -4 23 -6 11 -11 13 -16 5 -4 -6 -14 -11 -22 -11 -8 0 -12 5 -9 10
3 6 1 10 -4 10 -6 0 -11 -4 -11 -10 0 -5 -6 -10 -13 -10 -8 0 -13 9 -11 23 1
12 3 27 3 32 1 7 4 7 9 0 4 -5 12 -11 17 -12 6 -1 19 -5 30 -8 16 -6 17 -5 5
4 -8 6 -13 11 -10 12 58 9 72 8 67 -5 -4 -10 -1 -13 8 -9 8 3 12 9 9 14 -3 5
2 9 10 9 8 0 17 3 19 8 3 4 -12 7 -34 8 -21 0 -39 -3 -39 -8 0 -15 -19 -8 -40
15 -16 16 -19 17 -15 5 4 -11 2 -18 -4 -18 -6 0 -11 5 -11 11 0 5 -4 8 -9 4
-5 -3 -12 -1 -16 5 -4 6 -12 4 -22 -5 -16 -17 -44 -17 -44 0 0 6 10 13 23 17
13 3 17 6 10 7 -7 1 -11 5 -8 10 3 5 15 7 26 4 12 -3 20 0 20 6 0 7 5 9 11 5
19 -11 81 -13 100 -3 11 5 19 5 21 -1 2 -5 18 -6 42 0 41 9 60 5 51 -10 -3 -5
0 -12 7 -16 7 -4 10 -4 6 0 -4 5 -3 18 2 30 8 21 5 23 -30 24 -22 1 -42 -3
-45 -8 -8 -13 -35 12 -27 25 3 6 -4 2 -16 -9 -21 -18 -22 -18 -32 9 -7 19 -7
32 -1 38 7 7 12 5 16 -5 4 -10 15 -13 31 -10 27 5 30 12 12 30 -10 10 -8 12 7
9 31 -5 72 -30 57 -35 -6 -2 -12 -11 -12 -20 1 -16 2 -16 14 0 7 10 15 15 18
12 3 -2 3 7 0 22 -4 20 -1 25 9 22 8 -3 13 -14 11 -24 -2 -12 0 -15 5 -7 5 6
23 11 42 10 25 -2 38 4 51 23 28 38 35 70 16 70 -9 0 -16 -4 -16 -10 0 -5 -8
-10 -17 -10 -15 0 -16 -2 -3 -9 8 -6 18 -7 22 -5 4 3 8 0 8 -5 0 -6 -4 -11
-10 -11 -5 0 -10 -6 -10 -14 0 -20 -32 -28 -61 -17 -22 9 -20 10 16 11 33 0
37 2 22 11 -10 6 -25 8 -33 5 -8 -3 -14 0 -14 6 0 6 -3 8 -7 5 -3 -4 -12 -2
-20 5 -10 8 -12 8 -8 -3 4 -10 -3 -14 -20 -14 -27 0 -29 3 -16 24 11 18 81 23
101 7 13 -10 13 -9 1 7 -11 14 -3 25 12 15 1 -1 11 4 23 10 16 8 27 8 48 -4
36 -18 56 -18 56 1 0 8 -3 15 -7 16 -5 1 -21 3 -38 5 -16 2 -39 5 -50 7 -11 3
-29 -3 -39 -12 -11 -9 -16 -10 -12 -3 4 6 2 12 -3 12 -6 0 -11 -7 -11 -15 0
-8 -4 -15 -10 -15 -5 0 -7 7 -4 15 5 11 2 13 -10 9 -9 -3 -13 -10 -10 -15 3
-5 0 -9 -6 -9 -7 0 -9 8 -5 21 4 12 3 19 -2 16 -5 -3 -9 3 -9 13 0 11 2 17 5
15 2 -3 10 0 17 5 9 8 12 6 10 -6 -1 -12 7 -18 27 -19 15 -1 27 2 27 8 0 5 -7
6 -16 3 -9 -3 -12 -2 -9 4 7 11 42 9 60 -2 7 -4 12 5 13 22 2 23 -1 28 -13 24
-8 -4 -15 -1 -15 6 0 6 -5 8 -10 5 -6 -3 -10 -1 -10 4 0 6 11 11 24 11 14 0
28 5 32 11 4 8 0 9 -15 4 -12 -3 -21 -2 -21 4 0 5 14 8 32 5 18 -2 35 2 39 8
5 7 11 9 16 5 4 -5 1 -12 -7 -17 -11 -7 -8 -10 13 -10 17 0 26 4 22 10 -11 18
19 6 33 -13 18 -24 7 -38 -22 -27 -13 5 -27 6 -30 3 -3 -4 -6 -1 -6 6 0 7 -5
9 -10 6 -6 -4 -7 -11 -4 -17 5 -7 2 -8 -5 -4 -7 5 -10 14 -7 22 3 8 2 14 -3
14 -9 0 -21 -33 -21 -57 0 -7 12 -13 26 -13 24 0 25 -2 13 -17 -13 -17 -13
-17 7 0 20 17 68 18 93 3 6 -4 11 -3 11 2 0 5 20 9 44 8 32 -1 47 3 55 16 9
15 8 18 -6 18 -10 0 -25 5 -33 10 -13 8 -12 12 7 29 15 14 23 17 27 8 3 -9 6
-9 13 1 6 8 24 11 49 8 21 -2 33 -2 27 1 -7 2 -13 11 -13 18 0 7 -7 15 -15 19
-8 3 -15 15 -15 26 0 17 5 20 35 17 28 -3 35 -1 35 12 0 10 -4 21 -10 27 -16
16 -1 52 20 47 12 -3 17 -11 13 -21 -5 -13 -1 -12 18 4 43 37 49 38 39 3 -10
-35 -20 -49 -20 -29 0 10 -3 10 -15 0 -8 -6 -19 -9 -25 -5 -6 3 -10 -3 -10
-14 0 -13 7 -21 18 -22 47 -2 65 -7 74 -20 8 -12 9 -11 5 1 -4 12 4 16 34 17
37 2 39 0 39 -27 0 -26 -3 -28 -32 -26 -18 2 -41 -1 -52 -6 -11 -6 -21 -6 -25
-1 -8 13 -38 23 -45 16 -12 -12 35 -34 67 -32 18 2 38 0 44 -4 7 -5 22 -3 33
3 16 8 20 8 20 -3 0 -8 6 -20 14 -26 12 -10 18 -7 32 14 11 17 20 22 24 15 5
-7 10 -3 13 12 4 12 2 25 -3 26 -15 5 -12 23 3 21 6 -1 25 3 40 9 16 7 31 12
35 12 4 0 15 14 24 30 16 27 16 30 1 30 -9 0 -13 -3 -10 -7 10 -9 -13 -33 -27
-27 -25 10 -5 89 24 97 26 7 25 -1 -2 -23 -13 -10 -20 -22 -16 -26 4 -4 15 -1
24 7 13 11 18 11 21 2 6 -17 33 -17 33 0 0 7 9 18 20 25 11 7 20 17 20 22 0
11 -28 9 -47 -3 -7 -5 -19 -5 -25 0 -7 4 -25 6 -40 4 -22 -2 -27 1 -22 13 8
21 26 23 107 11 25 -4 36 -2 32 5 -3 5 -1 10 5 10 7 0 10 -7 6 -15 -3 -8 -1
-15 4 -15 6 0 10 4 10 9 0 16 30 21 50 8 23 -14 27 -42 5 -34 -8 4 -17 2 -20
-4 -4 -5 -1 -8 6 -7 19 5 22 -20 2 -25 -15 -4 -15 -5 3 -6 11 0 29 6 40 14 11
8 14 15 7 15 -7 0 -13 8 -13 18 0 10 -6 24 -12 31 -11 11 -9 11 10 2 24 -13
30 -3 10 17 -7 7 -9 12 -6 12 4 0 14 -7 22 -16 9 -8 16 -11 16 -5 0 6 5 11 11
11 5 0 7 -4 4 -10 -3 -5 3 -10 15 -10 14 0 19 4 14 12 -12 19 -12 48 0 42 6
-3 2 2 -8 10 -11 9 -17 18 -14 21 9 10 58 -6 58 -19 0 -6 5 -3 11 7 5 9 19 17
30 17 11 0 18 -4 15 -8 -2 -4 4 -8 14 -8 10 0 17 4 14 8 -2 4 4 6 15 5 17 -1
18 -3 3 -25 -8 -12 -21 -21 -28 -18 -24 9 -14 -18 16 -41 l28 -23 -4 23 c-2
12 -2 16 2 10 3 -7 10 -13 15 -13 6 0 7 6 3 13 -5 8 -2 7 10 -2 13 -11 20 -11
28 -3 9 9 8 12 -6 12 -17 0 -17 2 -2 24 10 16 12 27 6 31 -12 7 -4 25 11 25 6
0 8 -4 5 -8 -3 -5 1 -9 9 -9 8 0 12 4 9 8 -9 15 13 18 39 4 24 -12 28 -12 37
3 6 11 10 12 10 4 0 -7 4 -11 9 -8 5 3 14 -1 21 -9 9 -11 16 -12 26 -4 7 6 17
8 23 5 5 -3 11 0 14 6 3 10 7 10 17 1 9 -9 19 -9 32 -2 15 8 23 7 33 -8 7 -10
11 -22 8 -27 -4 -5 -1 -6 6 -2 9 6 9 11 1 21 -8 9 -5 14 10 18 26 7 26 33 0
40 -12 3 -18 1 -14 -5 4 -6 -2 -8 -16 -3 -15 5 -20 4 -16 -4 4 -6 3 -11 -2
-11 -5 0 -12 9 -15 20 -3 11 0 20 6 20 8 0 8 3 0 8 -8 5 8 9 38 9 37 1 49 -2
46 -11 -3 -7 1 -13 9 -13 8 0 13 6 10 14 -3 7 -1 13 4 13 6 0 10 -4 10 -10 0
-5 7 -10 16 -10 9 0 12 -5 8 -12 -4 -7 -9 -21 -10 -33 -2 -18 3 -20 44 -16 26
2 53 8 60 13 9 8 12 6 12 -6 0 -14 4 -15 21 -6 15 9 24 8 35 0 7 -7 21 -10 29
-6 8 3 15 4 15 2 0 -9 -39 -46 -49 -46 -8 0 -8 -5 3 -15 9 -9 22 -12 33 -8 17
7 17 6 1 -11 -24 -23 -23 -29 2 -14 11 7 20 16 20 19 0 4 8 10 18 14 14 5 15
4 5 -6 -16 -16 -17 -33 -2 -23 6 3 3 -5 -6 -20 -17 -26 -35 -34 -35 -16 0 5
-6 7 -14 4 -8 -3 -12 -12 -10 -19 3 -8 13 -11 21 -8 11 4 14 2 9 -6 -5 -7 -16
-9 -29 -5 -19 6 -20 5 -9 -9 8 -9 23 -14 35 -11 12 2 37 7 55 10 17 3 32 10
32 14 0 4 14 10 31 14 17 3 28 10 24 15 -3 5 -1 12 5 16 5 3 10 1 10 -5 0 -6
13 -5 36 5 20 8 40 12 45 9 5 -3 9 -1 9 4 0 9 16 12 57 12 22 0 22 1 5 18 -20
20 -106 26 -98 7 3 -8 -5 -10 -21 -7 -23 4 -25 2 -19 -19 l7 -24 -20 24 c-12
13 -21 19 -22 15 -1 -5 -2 -18 -3 -29 -1 -17 -9 -20 -48 -22 -27 -1 -48 2 -48
7 0 9 14 14 33 11 4 0 7 3 7 9 0 5 -4 10 -10 10 -5 0 -10 5 -10 12 0 6 -7 20
-17 30 -11 13 -12 18 -3 18 10 0 10 3 0 14 -9 12 -5 16 26 22 30 6 34 8 19 16
-9 6 -24 11 -32 12 -8 1 -19 9 -24 17 -7 10 -8 5 -4 -16 3 -16 2 -24 -1 -18
-4 9 -11 10 -23 3 -13 -6 -24 -4 -39 6 -13 9 -22 11 -22 5 0 -6 -7 -11 -15
-11 -8 0 -15 7 -15 15 0 16 -43 31 -59 20 -6 -3 -11 -1 -11 4 0 6 3 11 8 12 4
0 22 2 40 5 25 3 31 1 26 -9 -6 -9 -4 -9 8 1 11 8 41 12 89 10 67 -3 74 -5 72
-23 -1 -11 0 -14 3 -7 3 6 11 9 17 5 7 -4 6 1 -2 10 -12 16 -9 17 43 17 34 0
68 -6 84 -16 21 -13 23 -13 9 -1 -17 14 -9 15 88 15 63 0 101 -4 93 -9 -9 -6
-9 -9 -1 -9 6 0 14 4 17 8 8 14 168 14 177 1 6 -10 11 -10 21 -1 17 14 81 13
90 -2 5 -7 8 -4 8 7 0 10 4 16 9 13 16 -10 9 78 -8 92 -15 12 -15 13 1 8 15
-5 17 9 17 160 l1 164 -1795 0 -1795 0 0 -1266z m540 1252 c0 -3 -4 -8 -10
-11 -5 -3 -10 -1 -10 4 0 6 5 11 10 11 6 0 10 -2 10 -4z m2590 -181 c5 3 7 -1
4 -9 -5 -14 -9 -13 -30 1 -29 19 -32 28 -4 13 11 -6 25 -8 30 -5z m251 2 c-6
-8 -8 -17 -4 -20 3 -4 1 -7 -5 -7 -16 0 -15 27 1 33 19 8 20 8 8 -6z m-425
-15 c-10 -2 -22 0 -28 6 -6 6 0 7 19 4 21 -5 23 -7 9 -10z m478 3 c-4 -8 -11
-15 -16 -15 -6 0 -5 6 2 15 7 8 14 15 16 15 2 0 1 -7 -2 -15z m116 -12 c0 -2
-8 -12 -17 -21 -16 -16 -16 -16 -10 1 3 9 2 17 -4 17 -6 0 -8 4 -4 10 5 9 35
3 35 -7z m-1110 -43 c0 -5 -5 -10 -11 -10 -5 0 -7 5 -4 10 3 6 8 10 11 10 2 0
4 -4 4 -10z m280 -21 c0 -13 4 -18 12 -13 7 4 8 3 4 -5 -10 -16 -23 -6 -28 24
-3 13 -1 22 3 19 5 -3 9 -14 9 -25z m530 18 c13 4 13 3 0 -6 -13 -9 -13 -11 2
-11 9 0 25 -3 35 -6 17 -6 17 -6 0 8 -18 13 -17 14 2 14 11 0 18 -4 15 -7 -2
-4 0 -10 6 -14 6 -3 13 2 17 11 6 16 7 16 14 -2 7 -17 8 -17 8 -1 1 21 21 23
21 2 0 -8 7 -15 15 -15 8 0 14 3 14 8 -4 21 3 23 21 7 20 -18 21 -18 14 1 -7
17 -6 17 9 5 15 -12 17 -12 11 3 -4 11 -1 16 10 16 9 0 16 -5 16 -11 0 -6 6
-9 14 -6 10 4 13 -2 12 -19 -1 -21 -16 -36 -16 -16 0 7 -43 7 -122 -1 -23 -2
-38 0 -38 7 0 6 -5 4 -10 -4 -6 -9 -10 -10 -10 -3 0 8 -9 9 -30 3 -17 -5 -30
-5 -30 0 0 5 -7 6 -17 3 -10 -4 -14 -2 -9 5 3 6 2 14 -4 17 -6 4 -10 3 -9 -2
4 -23 -3 -31 -26 -29 -16 0 -24 6 -22 16 1 9 -5 14 -15 12 -10 -2 -18 2 -18 8
0 15 22 12 48 -6 12 -8 22 -12 21 -7 -4 25 2 33 19 25 9 -5 24 -7 32 -5z
m-1060 -7 c0 -5 -5 -10 -11 -10 -5 0 -7 5 -4 10 3 6 8 10 11 10 2 0 4 -4 4
-10z m742 -7 c16 -15 21 -15 28 -3 5 8 13 11 17 6 4 -5 2 -11 -5 -13 -6 -3
-10 -8 -8 -12 3 -4 -13 -7 -35 -7 -36 0 -38 2 -22 14 15 11 16 14 3 22 -8 5
-11 10 -6 10 5 0 18 -8 28 -17z m67 -9 c-14 -18 0 -18 23 0 10 7 14 16 11 20
-4 4 4 3 18 -3 19 -7 30 -6 38 2 9 9 14 8 21 -3 14 -22 -7 -42 -31 -29 -14 7
-19 6 -19 -2 0 -8 -5 -7 -17 2 -11 10 -14 10 -9 2 5 -9 0 -13 -17 -13 -13 0
-26 3 -29 6 -9 9 3 44 14 38 5 -3 4 -12 -3 -20z m-738 -7 c-10 -9 -11 -8 -5 6
3 10 9 15 12 12 3 -3 0 -11 -7 -18z m26 1 c-3 -8 -6 -5 -6 6 -1 11 2 17 5 13
3 -3 4 -12 1 -19z m548 -16 c-8 -9 -25 20 -18 31 3 5 10 2 15 -7 6 -10 7 -20
3 -24z m714 16 c-1 -18 -2 -19 -6 -5 -2 9 -9 15 -14 12 -5 -4 -9 -1 -9 4 0 6
7 11 15 11 9 0 15 -9 14 -22z m31 0 c0 -18 -2 -20 -9 -8 -6 8 -7 18 -5 22 9
14 14 9 14 -14z m-780 -3 c0 -7 -11 -12 -25 -12 -26 0 -34 12 -12 20 22 7 37
4 37 -8z m-1200 1 c0 -3 -4 -8 -10 -11 -5 -3 -10 -1 -10 4 0 6 5 11 10 11 6 0
10 -2 10 -4z m494 -8 c-3 -4 -11 -5 -19 -1 -21 7 -19 12 4 10 11 0 18 -5 15
-9z m786 8 c0 -3 -4 -8 -10 -11 -5 -3 -10 -1 -10 4 0 6 5 11 10 11 6 0 10 -2
10 -4z m0 -37 c0 -5 -4 -7 -10 -4 -6 3 -7 -1 -4 -10 4 -10 10 -13 16 -7 11 11
48 4 48 -9 0 -5 -5 -9 -12 -9 -6 0 -4 -6 7 -13 11 -9 15 -19 10 -26 -5 -9 -11
-9 -17 -3 -6 6 -17 8 -24 5 -8 -3 -14 0 -14 6 0 23 -2 26 -17 35 -10 5 -18 4
-24 -5 -14 -22 -10 -33 5 -19 12 9 15 8 13 -9 -1 -22 -16 -23 -35 -1 -12 13
-13 13 -8 -2 4 -12 1 -15 -11 -11 -14 5 -13 9 6 24 12 10 20 22 19 28 -3 10
30 40 45 41 4 0 7 -5 7 -11z m60 7 c0 -3 -4 -8 -10 -11 -5 -3 -10 -1 -10 4 0
6 5 11 10 11 6 0 10 -2 10 -4z m167 -11 c-14 -10 -10 -12 21 -13 20 -1 38 -6
40 -12 2 -5 8 -10 13 -10 6 0 7 5 4 10 -10 17 51 11 66 -6 10 -13 10 -17 -2
-25 -12 -7 -12 -9 0 -9 8 0 11 -3 8 -6 -4 -4 -12 -2 -19 3 -21 16 -57 22 -52
9 2 -6 -5 -12 -16 -13 -11 -1 -18 2 -15 8 4 5 4 9 1 9 -2 0 -12 3 -22 7 -13 5
-16 3 -11 -10 5 -13 1 -17 -16 -17 -13 0 -29 6 -36 13 -9 7 -11 7 -8 1 4 -7 0
-15 -9 -18 -9 -4 -13 -2 -8 5 4 7 0 9 -13 5 -27 -9 -43 13 -32 42 5 12 11 22
15 22 3 0 3 -7 0 -16 -6 -15 -4 -15 10 -3 10 8 25 13 36 11 10 -2 21 3 23 11
3 7 13 14 22 14 14 0 14 -1 0 -12z m194 -3 c-9 -17 -5 -18 45 -18 37 1 54 5
54 14 0 7 13 0 28 -15 20 -20 26 -32 19 -41 -7 -8 -14 -9 -20 -3 -5 5 -16 7
-24 4 -12 -5 -12 -7 -1 -14 9 -6 6 -8 -9 -6 -12 2 -26 6 -29 10 -12 12 -26 8
-18 -5 5 -9 3 -9 -9 1 -9 7 -14 18 -10 23 3 6 0 8 -8 6 -8 -3 -13 -14 -12 -24
1 -11 -3 -6 -11 11 -12 25 -14 27 -19 10 -4 -18 -5 -17 -6 3 -1 24 18 62 32
62 4 0 3 -8 -2 -18z m-826 -32 c7 0 15 -5 17 -12 3 -7 7 -5 11 6 4 9 3 15 -1
12 -4 -2 -14 -1 -21 4 -9 5 -3 7 17 7 22 -1 28 -6 24 -17 -5 -13 -4 -13 13 0
11 9 16 10 11 3 -10 -18 15 -16 42 3 21 14 23 14 21 -2 0 -4 5 -10 11 -14 8
-5 7 -9 -4 -13 -9 -4 -15 -3 -15 1 3 19 -2 23 -14 14 -20 -17 -89 -20 -118 -6
-18 9 -36 10 -57 5 -17 -5 -33 -7 -36 -4 -3 3 -8 -1 -12 -10 -3 -9 -12 -13
-19 -11 -15 6 -9 34 7 34 5 0 6 -5 2 -12 -4 -7 -3 -8 5 -4 9 6 9 11 1 21 -9
11 -7 14 12 12 13 0 26 -6 31 -12 4 -6 10 -5 16 4 5 7 14 10 20 7 6 -4 12 0
12 11 1 13 3 12 6 -4 2 -13 10 -23 18 -23z m728 33 c-7 -2 -19 -2 -25 0 -7 3
-2 5 12 5 14 0 19 -2 13 -5z m334 -2 c12 10 14 10 9 1 -4 -7 -1 -15 8 -18 14
-5 15 -13 7 -53 -1 -2 -8 2 -16 9 -9 7 -22 9 -32 5 -36 -16 -53 -15 -46 0 4
11 9 13 18 5 10 -8 12 -3 8 27 -5 33 -4 36 11 24 13 -11 19 -11 33 0z m-1362
-11 c3 -5 1 -10 -4 -10 -6 0 -11 5 -11 10 0 6 2 10 4 10 3 0 8 -4 11 -10z
m1295 -1 c0 -4 -7 -9 -15 -13 -9 -3 -15 0 -15 8 0 7 7 13 15 13 8 0 15 -4 15
-8z m-1876 -29 c-6 -6 -10 -2 -11 12 -2 16 1 18 10 9 7 -7 8 -14 1 -21z m371
21 c3 -5 1 -12 -5 -16 -5 -3 -10 1 -10 9 0 18 6 21 15 7z m125 -4 c0 -5 6 -7
13 -4 7 3 13 -3 14 -14 1 -13 -2 -16 -10 -8 -7 5 -20 16 -31 23 -16 11 -16 13
-2 13 9 0 16 -5 16 -10z m574 4 c3 -5 -1 -11 -9 -14 -9 -4 -12 -1 -8 9 6 16
10 17 17 5z m34 -17 c0 -17 -4 -22 -11 -15 -5 5 -7 17 -4 25 9 23 15 19 15
-10z m52 -10 c0 -8 -5 -14 -11 -14 -6 0 -8 7 -5 16 3 9 2 12 -5 9 -5 -4 -7
-16 -3 -28 5 -17 3 -19 -5 -11 -7 7 -9 22 -5 38 5 21 9 24 20 15 8 -6 14 -18
14 -25z m27 16 c1 -11 -2 -20 -6 -20 -5 0 -11 9 -14 20 -3 12 0 20 7 20 6 0
12 -9 13 -20z m23 4 c0 -8 -5 -12 -10 -9 -6 4 -8 11 -5 16 9 14 15 11 15 -7z
m186 -12 c-1 -16 -7 -29 -14 -29 -7 0 -11 6 -8 13 3 8 0 11 -10 7 -7 -3 -14 0
-14 6 0 6 9 11 20 11 11 0 20 5 20 10 0 6 2 10 4 10 2 0 3 -13 2 -28z m-776
14 c0 -2 -7 -7 -16 -10 -8 -3 -12 -2 -9 4 6 10 25 14 25 6z m88 -14 c2 -7 -1
-12 -8 -12 -6 0 -9 4 -6 9 4 5 1 12 -4 14 -6 3 -5 4 2 3 6 -1 14 -8 16 -14z
m-438 -2 c0 -5 -5 -10 -11 -10 -5 0 -7 5 -4 10 3 6 8 10 11 10 2 0 4 -4 4 -10z
m80 0 c0 -5 -5 -10 -11 -10 -5 0 -7 5 -4 10 3 6 8 10 11 10 2 0 4 -4 4 -10z
m55 0 c-3 -5 -12 -10 -18 -10 -7 0 -6 4 3 10 19 12 23 12 15 0z m-275 -4 c0
-2 -8 -10 -17 -17 -16 -13 -17 -12 -4 4 13 16 21 21 21 13z m325 -16 c-3 -5
-11 -10 -16 -10 -6 0 -7 5 -4 10 3 6 11 10 16 10 6 0 7 -4 4 -10z m262 -6 c-3
-3 -12 -4 -19 -1 -8 3 -5 6 6 6 11 1 17 -2 13 -5z m1233 2 c0 -11 -19 -15 -25
-6 -3 5 1 10 9 10 9 0 16 -2 16 -4z m-1946 -89 c-4 -33 -3 -34 28 -30 138 15
186 7 151 -26 -13 -12 -14 -11 -8 8 7 24 -7 28 -27 7 -11 -11 -16 -11 -35 1
-15 10 -23 11 -23 4 0 -6 7 -11 15 -11 22 0 18 -16 -5 -17 -11 -1 -19 3 -17
10 1 6 -7 12 -18 14 -15 3 -16 2 -7 -5 11 -8 11 -10 -1 -15 -9 -3 -18 1 -21 9
-4 11 -10 12 -25 5 -18 -10 -19 -6 -23 49 -2 46 0 57 8 45 6 -8 10 -30 8 -48z
m36 53 c0 -5 -5 -10 -11 -10 -5 0 -7 5 -4 10 3 6 8 10 11 10 2 0 4 -4 4 -10z
m70 -17 c0 -12 -2 -12 -15 1 -8 8 -15 17 -15 20 0 3 7 3 15 0 8 -4 15 -13 15
-21z m48 10 c7 -7 9 -13 4 -13 -4 0 -16 6 -26 13 -14 10 -15 14 -4 14 7 0 19
-6 26 -14z m162 5 c0 -5 -4 -7 -9 -3 -5 3 -12 1 -16 -4 -3 -6 5 -8 20 -5 24 4
25 4 8 -13 -17 -17 -19 -17 -41 7 -15 17 -20 19 -16 7 5 -13 2 -16 -15 -14
-12 2 -27 9 -34 17 -9 10 -9 11 0 6 7 -4 19 -3 27 1 21 11 76 12 76 1z m43 5
c-7 -2 -19 -2 -25 0 -7 3 -2 5 12 5 14 0 19 -2 13 -5z m37 -7 c0 -23 -16 -27
-17 -5 -1 10 2 19 8 19 5 0 9 -6 9 -14z m58 -6 c12 0 13 -3 5 -11 -14 -14 -33
-3 -32 19 0 11 3 12 6 5 2 -7 12 -13 21 -13z m146 9 c-4 -8 1 -9 17 -4 20 7
22 6 12 -7 -7 -8 -10 -17 -7 -20 2 -3 -7 -5 -20 -5 -17 0 -23 3 -18 11 3 6 7
14 8 19 3 15 4 17 10 17 3 0 2 -5 -2 -11z m96 -4 c0 -8 -7 -20 -15 -28 -8 -8
-11 -18 -7 -21 3 -4 0 -4 -9 -1 -8 3 -15 17 -14 33 0 21 5 27 22 28 13 1 23
-4 23 -11z m187 -15 c1 -14 -1 -19 -4 -12 -4 10 -10 10 -29 -3 -18 -12 -29
-13 -44 -5 -14 7 -20 7 -20 0 0 -5 -5 -10 -11 -10 -5 0 -7 4 -4 10 3 6 -1 7
-9 4 -10 -4 -18 1 -23 12 -6 15 -7 15 -14 -4 -9 -23 -29 -30 -29 -11 0 5 5 7
12 3 8 -5 9 -2 4 11 -10 26 3 30 91 30 77 0 79 -1 80 -25z m-1167 0 c0 -5 -5
-10 -11 -10 -5 0 -7 5 -4 10 3 6 8 10 11 10 2 0 4 -4 4 -10z m318 -25 c-3 -3
-9 2 -12 12 -6 14 -5 15 5 6 7 -7 10 -15 7 -18z m319 18 c-4 -3 -1 -13 6 -22
11 -14 10 -14 -5 -2 -16 12 -16 31 -1 31 4 0 3 -3 0 -7z m177 -18 c-3 -7 -12
-11 -19 -8 -11 4 -12 8 -2 18 15 16 28 10 21 -10z m611 5 c0 -7 -6 -15 -14
-18 -8 -3 -11 0 -7 7 7 11 -4 15 -36 12 -10 -1 -18 2 -18 8 0 5 17 8 38 7 24
-1 37 -7 37 -16z m-655 -22 c0 -18 -2 -20 -9 -8 -6 8 -7 18 -5 22 9 14 14 9
14 -14z m-680 -18 c0 -5 -4 -10 -10 -10 -5 0 -10 5 -10 10 0 6 5 10 10 10 6 0
10 -4 10 -10z m440 -1 c0 -5 5 -7 10 -4 6 3 10 2 10 -4 0 -5 -6 -12 -12 -15
-7 -3 -3 -3 10 0 12 3 22 1 22 -5 0 -6 -11 -11 -25 -11 -19 0 -25 5 -26 23 0
12 -3 16 -6 10 -7 -18 -23 -16 -23 2 0 8 9 15 20 15 11 0 20 -5 20 -11z m45 1
c3 -5 1 -10 -4 -10 -6 0 -11 5 -11 10 0 6 2 10 4 10 3 0 8 -4 11 -10z m44 -21
c-21 -13 -29 -11 -29 7 0 10 6 14 15 10 8 -3 15 0 16 7 0 8 2 7 6 -2 3 -7 -1
-17 -8 -22z m71 -13 c0 -6 -7 -1 -15 10 -8 10 -15 23 -15 28 0 6 7 1 15 -10 8
-10 15 -23 15 -28z m226 23 c0 -16 -15 -39 -26 -39 -15 0 -20 31 -7 45 14 17
32 14 33 -6z m-929 -11 c-3 -8 -6 -5 -6 6 -1 11 2 17 5 13 3 -3 4 -12 1 -19z
m163 -9 c0 -5 -4 -9 -8 -9 -5 0 -9 7 -9 15 0 8 4 12 9 9 4 -3 8 -9 8 -15z
m107 5 c-3 -3 -12 -4 -19 -1 -8 3 -5 6 6 6 11 1 17 -2 13 -5z m1309 -22 c-9
-9 -37 8 -31 18 5 8 11 7 21 -1 8 -6 12 -14 10 -17z m-1068 -13 c-3 -8 -7 -3
-11 10 -4 17 -3 21 5 13 5 -5 8 -16 6 -23z m-1261 -31 c-3 -7 -5 -2 -5 12 0
14 2 19 5 13 2 -7 2 -19 0 -25z m1091 2 c3 -34 -8 -39 -25 -10 -11 16 -10 21
5 29 9 6 17 11 17 11 1 0 2 -13 3 -30z m-184 -11 c-45 -8 -59 -3 -20 7 14 3
26 11 26 16 0 6 7 4 17 -3 14 -12 12 -15 -23 -20z m99 0 c5 -18 2 -20 -28 -16
-20 3 -36 0 -38 -7 -2 -6 -8 -8 -12 -3 -5 4 0 14 11 21 14 10 24 11 39 4 16
-9 18 -8 8 3 -17 17 -16 30 1 23 8 -3 16 -14 19 -25z m-288 11 c3 -6 -1 -7 -9
-4 -18 7 -21 14 -7 14 6 0 13 -4 16 -10z m69 -5 c-4 -8 -11 -12 -16 -9 -6 4
-5 10 3 15 19 12 19 11 13 -6z m259 2 c43 -46 51 -58 37 -55 -8 2 -18 9 -21
17 -4 10 -8 11 -12 3 -4 -6 3 -21 15 -33 13 -12 17 -19 11 -15 -7 4 -13 2 -13
-5 0 -6 8 -9 20 -6 11 3 20 1 20 -4 0 -5 -3 -9 -7 -10 -5 0 -16 -2 -25 -4 -26
-5 -56 21 -41 35 7 8 8 22 2 43 -14 50 -10 60 14 34z m-623 -7 c0 -5 -5 -10
-11 -10 -5 0 -7 5 -4 10 3 6 8 10 11 10 2 0 4 -4 4 -10z m235 0 c3 -5 1 -10
-4 -10 -6 0 -11 5 -11 10 0 6 2 10 4 10 3 0 8 -4 11 -10z m-26 -23 c0 -9 -2
-8 -6 1 -2 6 -10 9 -15 6 -7 -4 -8 -2 -4 5 9 13 26 5 25 -12z m-647 -59 c-6
-6 -7 0 -4 19 5 21 7 23 10 9 2 -10 0 -22 -6 -28z m1017 1 c-10 -6 -11 -9 -1
-9 6 0 12 -9 12 -21 0 -17 -2 -18 -15 -7 -37 34 -45 39 -45 28 0 -6 -4 -9 -9
-6 -5 4 -12 0 -14 -6 -3 -7 -6 -1 -6 15 -1 18 4 27 14 27 8 0 15 4 15 9 0 5
14 2 31 -6 23 -12 28 -18 18 -24z m-429 10 c0 7 4 10 10 6 5 -3 7 -12 3 -21
-3 -8 -8 -12 -11 -9 -3 3 -14 -2 -24 -12 -11 -9 -18 -11 -18 -5 0 7 5 12 11
12 6 0 8 9 3 22 -6 20 -5 21 10 9 11 -9 16 -10 16 -2z m117 -3 c4 -5 3 -6 -4
-2 -6 3 -18 -3 -26 -14 -14 -21 -15 -21 -19 2 -4 19 0 24 18 23 12 0 26 -4 31
-9z m63 5 c0 -5 3 -16 6 -25 3 -9 1 -16 -6 -16 -6 0 -8 5 -5 10 3 6 1 10 -5
10 -6 0 -8 5 -4 12 4 7 3 8 -5 4 -6 -4 -9 -12 -6 -17 4 -5 -3 -9 -14 -9 -10 0
-28 -2 -38 -5 -10 -3 -7 0 7 7 14 7 29 18 33 25 9 15 37 18 37 4z m-350 -5 c0
-2 -7 -7 -16 -10 -8 -3 -12 -2 -9 4 6 10 25 14 25 6z m40 -6 c0 -5 -4 -10 -10
-10 -5 0 -10 5 -10 10 0 6 5 10 10 10 6 0 10 -4 10 -10z m44 -14 c-10 -8 -21
-12 -23 -10 -3 2 4 11 15 18 10 8 21 12 23 10 3 -2 -4 -11 -15 -18z m310 -1
c-4 -8 -10 -15 -15 -15 -4 0 -6 7 -3 15 4 8 10 15 15 15 4 0 6 -7 3 -15z m253
-72 c-16 -16 -17 -15 -17 17 0 32 1 33 17 17 16 -16 16 -18 0 -34z m-472 6
c-4 -11 -2 -19 4 -19 6 0 11 5 11 12 0 6 3 8 6 5 9 -9 -16 -38 -27 -31 -5 3
-8 18 -7 34 1 16 6 26 10 23 5 -2 6 -13 3 -24z m-175 -4 c0 -7 -7 -15 -15 -19
-12 -4 -13 -2 -6 13 6 10 7 22 3 26 -4 5 -1 5 6 1 6 -4 12 -13 12 -21z m144
-9 c-6 -15 -44 -18 -44 -5 0 6 4 8 9 4 5 -3 12 -1 16 5 3 5 -2 10 -12 11 -16
0 -16 1 2 8 21 9 36 -4 29 -23z m93 22 c2 6 9 12 15 12 7 0 7 -4 0 -12 -6 -7
-11 -16 -11 -21 0 -4 -5 -15 -10 -25 -8 -14 -11 -14 -11 -2 -1 8 -3 26 -6 40
-3 20 -2 22 7 10 8 -11 12 -12 16 -2z m88 2 c7 6 15 7 18 3 2 -4 -9 -18 -24
-31 -24 -20 -30 -21 -35 -8 -3 8 0 22 8 30 7 7 15 10 16 5 3 -6 9 -5 17 1z
m-414 -27 c-8 -15 -10 -15 -11 -2 0 17 10 32 18 25 2 -3 -1 -13 -7 -23z m164
17 c-3 -5 -14 -10 -23 -9 -14 0 -13 2 3 9 27 11 27 11 20 0z m-45 -21 c0 -5
-4 -9 -10 -9 -5 0 -10 7 -10 16 0 8 5 12 10 9 6 -3 10 -10 10 -16z m318 -5
c-1 -5 -9 -9 -16 -10 -10 -2 -11 1 -1 12 12 14 24 13 17 -2z m302 -34 c0 -5
-5 -10 -11 -10 -5 0 -7 5 -4 10 3 6 8 10 11 10 2 0 4 -4 4 -10z m-688 -12 c-8
-8 -9 -15 -1 -25 8 -9 8 -13 0 -13 -6 0 -11 6 -11 13 0 8 -3 7 -10 -3 -8 -12
-11 -13 -22 -2 -11 11 -10 13 2 10 8 -2 14 3 12 10 -1 8 2 11 7 8 5 -4 12 -2
16 4 3 5 9 10 13 10 3 0 1 -5 -6 -12z m274 -5 c-3 -7 -1 -13 4 -13 6 0 10 -5
10 -11 0 -6 -7 -9 -15 -5 -8 3 -15 1 -15 -4 0 -6 -4 -10 -9 -10 -5 0 -7 9 -4
20 3 11 0 20 -6 20 -6 0 -11 4 -11 8 0 4 11 8 25 8 17 0 24 -4 21 -13z m-391
-23 c-3 -5 -12 -10 -18 -10 -7 0 -6 4 3 10 19 12 23 12 15 0z m-245 -72 c0
-23 -3 -29 -9 -19 -8 12 -4 51 5 51 2 0 4 -15 4 -32z m225 -7 c-3 -6 -11 -11
-16 -11 -5 0 -4 6 3 14 14 16 24 13 13 -3z m65 5 c9 -12 8 -15 -9 -13 -11 0
-17 5 -14 11 4 5 -1 7 -10 3 -10 -3 -17 -2 -17 3 0 15 36 12 50 -4z m-210 -6
c0 -5 -5 -10 -11 -10 -5 0 -7 5 -4 10 3 6 8 10 11 10 2 0 4 -4 4 -10z m140
-30 c0 -5 -5 -10 -11 -10 -5 0 -7 5 -4 10 3 6 8 10 11 10 2 0 4 -4 4 -10z
m305 0 c3 -5 1 -10 -4 -10 -6 0 -11 5 -11 10 0 6 2 10 4 10 3 0 8 -4 11 -10z
m-377 -33 c-3 -18 2 -21 44 -22 25 0 44 3 42 7 -3 5 -12 8 -21 8 -9 0 -14 3
-10 6 3 3 7 5 9 3 2 -1 13 3 25 9 14 8 24 9 28 2 4 -6 11 -8 16 -5 5 4 9 2 9
-2 0 -29 -113 -51 -147 -30 -7 5 -19 5 -25 1 -7 -4 -5 2 5 14 11 12 16 26 11
33 -4 8 -3 10 5 5 7 -4 11 -17 9 -29z m-107 -1 c5 3 9 0 9 -6 0 -15 -23 -7
-26 8 -1 7 0 8 3 2 2 -5 9 -8 14 -4z m4 -57 c4 -5 0 -18 -9 -28 -8 -9 -18 -43
-22 -74 -4 -31 -10 -57 -15 -57 -7 0 -5 22 6 95 9 65 25 90 40 64z m140 1 c-3
-5 -12 -10 -18 -10 -7 0 -6 4 3 10 19 12 23 12 15 0z m-27 -22 c24 -24 14 -45
-23 -43 -38 1 -50 8 -40 24 9 16 25 13 25 -4 0 -9 6 -12 16 -8 11 4 12 9 5 16
-6 6 -11 15 -11 19 0 12 14 10 28 -4z m-168 -19 c0 -6 -4 -7 -10 -4 -5 3 -10
11 -10 16 0 6 5 7 10 4 6 -3 10 -11 10 -16z m80 -4 c0 -8 -4 -15 -8 -15 -5 0
-9 7 -9 15 0 8 4 15 9 15 4 0 8 -7 8 -15z m-93 -107 c-3 -8 -6 -5 -6 6 -1 11
2 17 5 13 3 -3 4 -12 1 -19z m-280 -551 c-2 -6 -9 -13 -17 -15 -8 -3 -10 0 -5
8 6 10 3 12 -10 6 -15 -5 -16 -4 -6 8 14 16 44 10 38 -7z m3 -75 c0 -4 -9 -18
-20 -32 -16 -20 -19 -21 -13 -5 6 17 5 18 -9 7 -21 -17 -48 12 -29 31 10 9 11
8 6 -5 -4 -11 -2 -18 4 -18 6 0 11 7 11 15 0 9 6 12 15 9 8 -4 15 -1 15 6 0 6
5 8 10 5 6 -3 10 -9 10 -13z m90 -7 c0 -8 -9 -19 -20 -25 -18 -10 -19 -9 -8
15 12 27 28 33 28 10z m-210 -85 c0 -5 5 -10 11 -10 5 0 7 5 4 10 -3 6 0 10 8
10 19 0 14 -40 -6 -52 -13 -7 -15 -5 -11 7 4 10 0 15 -10 15 -9 0 -16 7 -16
15 0 8 5 15 10 15 6 0 10 -4 10 -10z m173 -5 c-3 -9 -8 -14 -10 -11 -3 3 -2 9
2 15 9 16 15 13 8 -4z m37 5 c0 -5 -2 -10 -4 -10 -3 0 -8 5 -11 10 -3 6 -1 10
4 10 6 0 11 -4 11 -10z m-7 -36 c3 -4 2 -16 -4 -26 -8 -15 -8 -23 2 -32 9 -8
10 -8 4 4 -5 9 -4 12 1 7 13 -12 15 -75 2 -83 -6 -4 -8 1 -4 14 4 12 1 26 -8
34 -8 8 -14 31 -13 51 1 36 7 44 20 31z m-199 -58 c-7 -18 -20 -21 -29 -6 -3
6 1 10 9 10 9 0 16 5 16 12 0 6 2 9 5 6 3 -3 3 -13 -1 -22z m26 -36 c0 -5 -5
-10 -11 -10 -5 0 -7 5 -4 10 3 6 8 10 11 10 2 0 4 -4 4 -10z m-95 -120 c-1
-11 -4 -22 -7 -25 -4 -5 -4 34 1 43 4 8 7 -1 6 -18z m471 -98 c-11 -10 -13 3
-7 43 l6 40 3 -39 c2 -21 1 -41 -2 -44z m-495 1 c-8 -15 -10 -15 -11 -2 0 17
10 32 18 25 2 -3 -1 -13 -7 -23z m359 3 c0 -3 -4 -8 -10 -11 -5 -3 -10 -1 -10
4 0 6 5 11 10 11 6 0 10 -2 10 -4z m145 -45 c3 -5 1 -12 -5 -16 -5 -3 -10 1
-10 9 0 18 6 21 15 7z m-118 -48 c-3 -10 -5 -4 -5 12 0 17 2 24 5 18 2 -7 2
-21 0 -30z m-160 -15 c-3 -8 -6 -5 -6 6 -1 11 2 17 5 13 3 -3 4 -12 1 -19z
m283 -58 c0 -5 -5 -10 -11 -10 -5 0 -7 5 -4 10 3 6 8 10 11 10 2 0 4 -4 4 -10z
m-181 -67 c-12 -15 -12 -16 4 -10 21 8 22 0 2 -20 -8 -8 -13 -18 -10 -23 3 -4
-2 -11 -10 -14 -13 -4 -14 -2 -5 14 6 11 7 20 2 20 -15 0 -8 45 8 51 21 9 25
2 9 -18z m55 -22 c-3 -62 -4 -71 -11 -71 -7 0 -9 65 -4 103 3 23 16 -5 15 -32z
m46 -81 c0 -5 -4 -10 -10 -10 -5 0 -10 5 -10 10 0 6 5 10 10 10 6 0 10 -4 10
-10z m-15 -30 c3 -5 1 -10 -4 -10 -6 0 -11 5 -11 10 0 6 2 10 4 10 3 0 8 -4
11 -10z m-39 -27 c-10 -10 -19 5 -10 18 6 11 8 11 12 0 2 -7 1 -15 -2 -18z
m-12 -154 c-3 -5 14 -18 38 -29 24 -11 34 -19 23 -17 -15 1 -19 -3 -18 -18 1
-14 -2 -11 -10 8 -14 34 -26 35 -19 2 3 -16 0 -25 -8 -25 -8 0 -11 -11 -8 -30
3 -16 1 -30 -4 -30 -7 0 -10 19 -12 85 0 11 -5 23 -11 27 -6 5 -6 8 3 8 6 0
12 9 12 21 0 11 5 17 10 14 6 -4 8 -11 4 -16z m-34 -190 c0 -6 -4 -7 -10 -4
-5 3 -10 11 -10 16 0 6 5 7 10 4 6 -3 10 -11 10 -16z m4 -81 c-3 -4 -9 -8 -15
-8 -5 0 -9 4 -9 8 0 5 7 9 15 9 8 0 12 -4 9 -9z m61 -44 c-8 -16 -15 -24 -15
-17 0 18 24 67 27 56 2 -5 -3 -23 -12 -39z m-30 6 c3 -5 1 -10 -4 -10 -6 0
-11 5 -11 10 0 6 2 10 4 10 3 0 8 -4 11 -10z m155 -139 c0 -11 -4 -23 -10 -26
-6 -4 -10 5 -10 19 0 14 5 26 10 26 6 0 10 -9 10 -19z m-277 -92 c-8 -8 -13
-7 -18 2 -5 8 -4 10 3 5 7 -4 12 -2 12 5 0 7 3 9 7 6 4 -4 2 -12 -4 -18z m-1
-116 c-3 -16 -7 -22 -10 -15 -4 13 4 42 11 42 2 0 2 -12 -1 -27z m185 -51 c-2
-15 -4 -2 -4 28 0 30 2 43 4 27 2 -15 2 -39 0 -55z"/>
<path d="M3027 3210 c-9 -11 -13 -20 -7 -20 5 0 14 9 20 20 6 11 9 20 8 20 -2
0 -11 -9 -21 -20z"/>
<path d="M3086 3213 c-3 -7 0 -15 7 -19 7 -4 8 -3 4 1 -4 5 3 15 15 21 l23 13
-22 -2 c-12 -1 -25 -7 -27 -14z"/>
<path d="M3515 3220 c-3 -5 1 -10 9 -10 9 0 16 5 16 10 0 6 -4 10 -9 10 -6 0
-13 -4 -16 -10z"/>
<path d="M2365 3140 c-3 -5 -1 -10 4 -10 6 0 11 5 11 10 0 6 -2 10 -4 10 -3 0
-8 -4 -11 -10z"/>
<path d="M2405 3130 c-3 -5 -1 -10 4 -10 6 0 11 5 11 10 0 6 -2 10 -4 10 -3 0
-8 -4 -11 -10z"/>
<path d="M801 2564 c0 -11 3 -14 6 -6 3 7 2 16 -1 19 -3 4 -6 -2 -5 -13z"/>
<path d="M576 2493 c-6 -14 -5 -15 5 -6 7 7 10 15 7 18 -3 3 -9 -2 -12 -12z"/>
<path d="M2520 3139 c0 -5 5 -7 10 -4 6 3 10 8 10 11 0 2 -4 4 -10 4 -5 0 -10
-5 -10 -11z"/>
<path d="M2824 3135 c8 -8 17 -15 20 -15 3 0 3 7 0 15 -4 8 -13 15 -21 15 -12
0 -12 -2 1 -15z"/>
<path d="M3120 3141 c0 -5 7 -12 16 -15 14 -5 15 -4 4 9 -14 17 -20 19 -20 6z"/>
<path d="M3015 3120 c7 -23 7 -23 -9 -7 -23 23 -26 22 -24 -8 2 -19 7 -25 23
-23 14 2 20 -3 20 -17 0 -14 8 -20 28 -22 16 -1 25 2 21 8 -3 6 -13 8 -22 4
-14 -5 -14 -3 1 13 22 24 22 52 -1 52 -10 0 -24 6 -31 13 -11 10 -12 8 -6 -13z"/>
<path d="M3417 3124 c-3 -3 -3 -13 0 -22 4 -15 3 -15 -7 -2 -9 11 -13 12 -17
3 -2 -7 -9 -13 -14 -13 -6 0 -8 4 -5 8 3 5 -9 7 -27 4 -26 -3 -29 -1 -17 8 13
10 13 11 0 7 -8 -2 -16 -17 -17 -35 -2 -28 0 -31 20 -29 12 1 24 5 27 9 6 8
42 16 78 17 14 1 22 7 22 19 1 16 1 16 14 0 14 -19 32 -25 21 -8 -9 14 8 13
23 -2 9 -9 13 -7 18 5 3 9 17 17 30 17 13 0 24 4 24 10 0 17 -133 0 -148 -19
-12 -14 -12 -14 -7 7 6 20 -4 30 -18 16z m-57 -44 c0 -5 -2 -10 -4 -10 -3 0
-8 5 -11 10 -3 6 -1 10 4 10 6 0 11 -4 11 -10z"/>
<path d="M2599 3117 c-1 -1 -3 -12 -4 -24 -2 -19 1 -21 16 -12 23 12 24 25 4
33 -8 3 -16 4 -16 3z"/>
<path d="M3205 3103 c2 -10 4 -20 4 -23 1 -3 6 2 11 10 8 12 10 12 10 1 0 -8
2 -12 5 -9 3 3 3 13 -1 22 -8 22 -33 21 -29 -1z"/>
<path d="M3130 3101 c0 -5 -8 -11 -17 -13 -15 -3 -14 -5 5 -10 17 -5 22 -2 22
13 0 10 -2 19 -5 19 -3 0 -5 -4 -5 -9z"/>
<path d="M3155 3090 c-3 -5 1 -10 9 -10 8 0 18 5 21 10 3 6 -1 10 -9 10 -8 0
-18 -4 -21 -10z"/>
<path d="M3260 3090 c-12 -8 -10 -10 8 -10 13 0 20 -4 17 -10 -4 -6 -11 -8
-16 -5 -5 4 -9 1 -9 -4 0 -13 27 -15 34 -2 7 10 -3 41 -13 41 -3 0 -13 -5 -21
-10z"/>
<path d="M3560 3090 c0 -5 5 -10 11 -10 5 0 7 5 4 10 -3 6 -8 10 -11 10 -2 0
-4 -4 -4 -10z"/>
<path d="M2298 3073 c7 -3 16 -2 19 1 4 3 -2 6 -13 5 -11 0 -14 -3 -6 -6z"/>
<path d="M2367 3043 c10 -18 21 -33 26 -33 13 0 8 10 -19 38 l-25 27 18 -32z"/>
<path d="M2495 3060 c-3 -6 1 -7 9 -4 18 7 21 14 7 14 -6 0 -13 -4 -16 -10z"/>
<path d="M2980 3049 c0 -13 -4 -18 -12 -13 -7 4 -8 3 -4 -4 12 -19 23 -14 28
13 3 14 1 25 -3 25 -5 0 -9 -9 -9 -21z"/>
<path d="M3185 3060 c-3 -5 -2 -10 4 -10 5 0 13 5 16 10 3 6 2 10 -4 10 -5 0
-13 -4 -16 -10z"/>
<path d="M2094 3042 c5 -16 2 -18 -24 -14 -16 2 -30 0 -30 -6 0 -5 15 -9 34
-8 22 1 32 -3 29 -11 -3 -7 3 -11 15 -10 20 1 20 1 1 25 -10 13 -16 28 -13 33
3 5 0 9 -6 9 -6 0 -9 -8 -6 -18z"/>
<path d="M2296 3045 c5 -11 2 -16 -7 -15 -30 5 -41 0 -35 -15 7 -20 -4 -46
-17 -38 -6 3 -7 1 -3 -5 4 -7 14 -12 22 -12 8 0 13 4 9 9 -3 5 -1 13 5 16 6 4
8 16 5 28 -6 22 -6 22 10 2 19 -24 50 -28 67 -7 11 12 11 16 0 19 -6 3 -10 9
-6 14 3 5 1 9 -5 9 -6 0 -14 -12 -17 -26 -5 -18 -9 -22 -14 -13 -5 7 -6 18 -3
25 2 6 0 15 -6 19 -7 4 -8 0 -5 -10z"/>
<path d="M2425 3050 c-3 -5 -1 -10 4 -10 6 0 11 5 11 10 0 6 -2 10 -4 10 -3 0
-8 -4 -11 -10z"/>
<path d="M2676 3048 c3 -5 10 -6 15 -3 13 9 11 12 -6 12 -8 0 -12 -4 -9 -9z"/>
<path d="M2640 3040 c-8 -5 -27 -10 -42 -10 -15 0 -30 -5 -34 -11 -10 -16 12
-33 33 -25 15 6 15 8 3 16 -8 6 -10 10 -5 10 6 -1 19 -7 29 -15 26 -20 45 -19
81 5 25 16 26 19 8 17 -12 0 -19 -5 -17 -9 3 -4 0 -8 -5 -8 -6 0 -11 5 -11 10
0 6 -7 10 -16 10 -8 0 -12 5 -9 10 8 12 4 12 -15 0z"/>
<path d="M2485 3029 c-11 -4 -14 -8 -6 -8 8 -1 11 -8 9 -19 -3 -11 0 -19 8
-19 13 0 26 45 15 51 -3 2 -15 0 -26 -5z"/>
<path d="M3167 3032 c-9 -2 -17 -7 -17 -12 0 -4 9 -6 21 -3 12 3 24 1 28 -5 4
-7 15 -4 31 9 l25 19 -35 -3 c-20 -1 -44 -3 -53 -5z"/>
<path d="M2406 3014 c-4 -9 -4 -19 -1 -22 2 -3 7 3 11 12 4 9 4 19 1 22 -2 3
-7 -3 -11 -12z"/>
<path d="M2437 3023 c-10 -10 -8 -45 2 -39 11 7 21 46 12 46 -4 0 -11 -3 -14
-7z"/>
<path d="M2536 3013 c-6 -14 -5 -15 5 -6 7 7 10 15 7 18 -3 3 -9 -2 -12 -12z"/>
<path d="M2930 3019 c0 -5 -4 -7 -10 -4 -5 3 -10 1 -10 -4 0 -16 16 -13 30 4
9 10 9 15 1 15 -6 0 -11 -5 -11 -11z"/>
<path d="M3270 3021 c0 -6 5 -11 10 -12 38 -4 54 -2 58 9 5 15 -24 16 -33 2
-5 -8 -11 -7 -21 1 -10 8 -14 8 -14 0z"/>
<path d="M3423 3023 c9 -2 23 -2 30 0 6 3 -1 5 -18 5 -16 0 -22 -2 -12 -5z"/>
<path d="M3545 3019 c-4 -6 -5 -12 -2 -15 2 -3 7 2 10 11 7 17 1 20 -8 4z"/>
<path d="M2770 2996 c0 -8 6 -18 13 -22 6 -4 9 -4 5 1 -4 4 -3 14 3 22 9 10 8
13 -5 13 -9 0 -16 -6 -16 -14z"/>
<path d="M2368 2993 c7 -3 16 -2 19 1 4 3 -2 6 -13 5 -11 0 -14 -3 -6 -6z"/>
<path d="M2024 2968 c4 -12 0 -18 -11 -18 -9 0 -22 -8 -29 -17 -20 -27 -16
-39 5 -15 22 26 31 28 31 7 0 -19 9 -19 32 2 10 9 21 13 25 9 4 -4 1 -11 -6
-15 -9 -6 -5 -8 13 -8 17 0 26 5 26 16 0 17 -38 46 -48 37 -3 -3 1 -6 9 -6 11
0 11 -2 -1 -10 -22 -14 -26 -13 -39 13 -6 12 -9 14 -7 5z"/>
<path d="M2850 2965 c0 -8 2 -15 4 -15 2 0 6 7 10 15 3 8 1 15 -4 15 -6 0 -10
-7 -10 -15z"/>
<path d="M2325 2960 c-3 -5 -3 -10 2 -10 4 -1 -8 -8 -27 -16 -22 -10 -36 -11
-38 -4 -2 5 -14 10 -26 10 -12 0 -28 6 -35 13 -10 10 -11 9 -6 -5 4 -10 13
-19 21 -19 34 -3 39 -6 37 -16 -2 -9 8 -8 36 2 22 7 42 11 45 8 3 -4 5 6 4 20
-3 30 -4 32 -13 17z"/>
<path d="M1850 2950 c-13 -8 -13 -11 0 -24 13 -14 15 -13 16 9 1 14 1 25 0 25
0 0 -8 -5 -16 -10z"/>
<path d="M2130 2944 c0 -8 6 -11 17 -7 12 5 15 2 10 -10 -7 -18 1 -21 20 -9
17 11 -1 35 -26 37 -12 1 -21 -4 -21 -11z"/>
<path d="M2422 2948 c5 -13 38 -20 38 -8 0 4 -9 10 -21 13 -12 3 -19 1 -17 -5z"/>
<path d="M2633 2947 c-6 -6 -14 -19 -18 -27 -8 -13 -6 -13 8 -1 9 7 26 11 37
8 25 -7 26 9 1 22 -13 8 -22 7 -28 -2z"/>
<path d="M1875 2941 c-3 -5 -1 -12 5 -16 5 -3 10 1 10 9 0 18 -6 21 -15 7z"/>
<path d="M2354 2938 c-4 -7 -3 -8 5 -4 6 4 20 2 29 -6 15 -12 16 -11 3 5 -16
20 -27 22 -37 5z"/>
<path d="M2690 2941 c0 -5 7 -11 14 -14 10 -4 13 -1 9 9 -6 15 -23 19 -23 5z"/>
<path d="M2750 2938 c0 -5 10 -8 21 -8 17 0 19 -3 10 -14 -9 -11 -9 -15 1 -19
9 -4 10 -6 1 -6 -7 -1 -10 -8 -7 -16 4 -8 3 -15 0 -15 -4 0 -11 10 -16 23 l-9
22 0 -23 c-1 -13 -5 -20 -11 -17 -5 3 -10 2 -10 -4 0 -6 -7 -8 -15 -5 -8 4
-15 1 -15 -6 0 -6 -4 -8 -10 -5 -5 3 -10 2 -10 -4 0 -13 17 -23 24 -13 2 4 20
7 40 7 20 -1 34 3 33 9 -1 6 5 11 13 10 17 -1 24 32 9 41 -5 4 -6 17 -3 30 5
20 2 23 -20 21 -14 0 -26 -4 -26 -8z"/>
<path d="M3055 2940 c-3 -5 -1 -10 4 -10 6 0 11 5 11 10 0 6 -2 10 -4 10 -3 0
-8 -4 -11 -10z"/>
<path d="M3085 2940 c-3 -5 -1 -10 4 -10 6 0 11 5 11 10 0 6 -2 10 -4 10 -3 0
-8 -4 -11 -10z"/>
<path d="M3190 2940 c-9 -6 -10 -10 -3 -10 6 0 15 5 18 10 8 12 4 12 -15 0z"/>
<path d="M3220 2929 c0 -5 5 -7 10 -4 6 3 10 8 10 11 0 2 -4 4 -10 4 -5 0 -10
-5 -10 -11z"/>
<path d="M2575 2920 c-3 -5 -2 -10 4 -10 5 0 13 5 16 10 3 6 2 10 -4 10 -5 0
-13 -4 -16 -10z"/>
<path d="M3505 2920 c-3 -5 1 -10 10 -10 9 0 13 5 10 10 -3 6 -8 10 -10 10 -2
0 -7 -4 -10 -10z"/>
<path d="M1820 2909 c0 -5 5 -7 10 -4 6 3 10 8 10 11 0 2 -4 4 -10 4 -5 0 -10
-5 -10 -11z"/>
<path d="M2426 2901 c-13 -15 -14 -20 -4 -24 8 -4 7 -6 -4 -6 -10 -1 -17 -6
-15 -12 1 -6 -4 -14 -11 -16 -7 -3 -11 0 -10 5 2 6 -1 12 -7 14 -5 1 -11 -13
-12 -32 -1 -19 1 -26 4 -16 4 15 7 16 13 6 6 -10 12 -11 22 -2 8 6 19 7 27 3
19 -12 51 -2 44 15 -3 8 0 14 6 14 6 0 11 -4 11 -10 0 -5 18 -10 40 -10 25 0
40 5 40 13 0 9 2 9 8 -1 6 -8 16 -10 28 -5 17 6 17 8 -6 13 -14 4 -30 3 -36
-2 -15 -11 -57 -4 -62 10 -2 7 -8 10 -13 6 -5 -3 -12 2 -15 10 -3 9 -10 13
-15 10 -8 -5 -13 9 -10 29 2 12 -5 8 -23 -12z m41 -37 c-3 -3 -12 -4 -19 -1
-8 3 -5 6 6 6 11 1 17 -2 13 -5z"/>
<path d="M2372 2893 c-10 -10 -10 -13 1 -13 8 0 20 6 26 13 8 10 7 14 -2 14
-7 0 -18 -6 -25 -14z"/>
<path d="M2115 2890 c-18 -8 -17 -9 8 -9 16 -1 26 3 22 9 -3 6 -7 10 -8 9 -1
0 -11 -4 -22 -9z"/>
<path d="M1837 2857 c-11 -29 -10 -29 48 -25 30 1 55 -1 55 -5 0 -4 8 -3 18 2
13 7 23 6 30 -1 8 -8 12 -8 12 -1 0 6 -7 16 -15 23 -12 10 -15 10 -15 0 0 -9
-7 -8 -24 3 -21 14 -25 14 -30 2 -3 -8 -10 -15 -16 -15 -6 0 -9 4 -6 9 3 5 -1
12 -10 15 -22 9 -24 8 -18 -9 4 -8 1 -15 -4 -15 -6 0 -12 8 -14 18 -3 16 -4
16 -11 -1z"/>
<path d="M2034 2854 c5 -12 2 -12 -17 -3 -20 10 -21 10 -6 -5 9 -9 24 -17 35
-16 10 0 35 0 55 0 22 0 39 5 42 13 4 10 -2 13 -18 11 -13 -1 -40 2 -60 6 -30
7 -35 6 -31 -6z"/>
<path d="M1755 2850 c-9 -14 -6 -17 20 -22 13 -2 19 2 17 11 -2 11 0 12 11 2
11 -9 16 -9 20 1 3 8 -5 14 -19 14 -13 1 -24 -3 -24 -10 0 -7 -4 -6 -9 3 -6
10 -10 10 -16 1z"/>
<path d="M2167 2844 c3 -7 9 -14 14 -14 14 0 10 17 -5 23 -10 4 -13 1 -9 -9z"/>
<path d="M2202 2841 c4 -21 48 -22 48 0 0 12 -7 16 -25 15 -16 0 -24 -6 -23
-15z"/>
<path d="M2296 2845 c4 -8 11 -15 16 -15 6 0 5 6 -2 15 -7 8 -14 15 -16 15 -2
0 -1 -7 2 -15z"/>
<path d="M2645 2850 c-8 -12 12 -40 28 -40 6 0 2 7 -9 15 -16 13 -17 16 -4 25
9 6 10 10 3 10 -6 0 -15 -5 -18 -10z"/>
<path d="M3040 2840 c0 -5 4 -10 9 -10 6 0 13 5 16 10 3 6 -1 10 -9 10 -9 0
-16 -4 -16 -10z"/>
<path d="M2988 2833 c7 -3 16 -2 19 1 4 3 -2 6 -13 5 -11 0 -14 -3 -6 -6z"/>
<path d="M1537 2813 c-4 -3 -7 -11 -7 -17 0 -6 5 -5 12 2 6 6 9 14 7 17 -3 3
-9 2 -12 -2z"/>
<path d="M2530 2810 c0 -5 5 -10 11 -10 5 0 7 5 4 10 -3 6 -8 10 -11 10 -2 0
-4 -4 -4 -10z"/>
<path d="M2565 2810 c-3 -5 -1 -10 4 -10 6 0 11 5 11 10 0 6 -2 10 -4 10 -3 0
-8 -4 -11 -10z"/>
<path d="M2590 2811 c0 -13 29 -35 37 -27 3 3 1 6 -5 6 -7 0 -12 7 -12 15 0 8
-4 15 -10 15 -5 0 -10 -4 -10 -9z"/>
<path d="M1380 2800 c0 -5 7 -7 15 -4 8 4 15 8 15 10 0 2 -7 4 -15 4 -8 0 -15
-4 -15 -10z"/>
<path d="M2389 2794 c-1 -5 -1 -12 0 -16 0 -5 -4 -7 -11 -5 -7 1 -13 -8 -14
-20 -1 -12 3 -20 8 -16 6 3 14 -1 19 -8 6 -9 9 -10 9 -2 0 7 -8 17 -17 22 -23
13 -8 14 17 1 26 -14 32 10 9 34 -11 11 -20 15 -20 10z"/>
<path d="M2225 2768 c11 -36 20 -39 21 -7 1 19 -4 29 -13 29 -10 0 -12 -7 -8
-22z"/>
<path d="M2495 2777 c-42 -25 -50 -62 -10 -47 14 5 25 6 25 1 0 -16 -56 -32
-102 -28 -42 4 -47 2 -53 -20 -3 -13 -3 -28 0 -33 4 -6 -1 -10 -10 -10 -9 0
-37 -11 -62 -26 -33 -18 -44 -21 -40 -10 4 9 2 18 -3 21 -6 4 -10 2 -10 -3 0
-6 -9 -8 -20 -5 -17 5 -20 0 -20 -26 0 -18 4 -30 9 -26 5 3 12 1 16 -5 3 -5
14 -10 23 -10 14 0 14 2 3 9 -11 7 -9 11 9 21 20 11 22 10 17 -3 -4 -11 -2
-14 8 -10 8 3 12 9 9 14 -3 5 0 9 6 9 7 0 24 9 40 20 15 11 36 21 46 23 11 1
25 6 32 10 6 5 16 6 21 2 5 -3 12 -1 16 5 4 6 11 8 16 5 9 -6 13 8 10 33 -1 7
10 12 28 12 16 0 33 5 36 10 3 6 1 10 -5 10 -7 0 -10 6 -7 13 2 6 9 11 15 10
19 -5 62 16 62 29 0 9 -3 8 -10 -2 -8 -12 -10 -12 -10 5 -1 20 -1 20 -15 1
-13 -17 -15 -18 -15 -3 0 21 -16 22 -24 2 -3 -8 -11 -15 -17 -15 -8 0 -8 4 1
15 15 18 12 18 -15 2z m-40 -107 c-28 -12 -37 -12 -30 0 3 6 16 10 28 9 21 0
21 -1 2 -9z"/>
<path d="M1362 2760 c7 -11 19 -18 25 -15 7 2 13 0 13 -5 0 -6 5 -10 10 -10
23 0 7 29 -21 39 -41 14 -41 14 -27 -9z"/>
<path d="M1682 2765 l-23 -12 26 -5 c19 -4 25 -2 21 8 -3 7 0 15 7 18 7 2 8 4
2 4 -5 0 -20 -6 -33 -13z"/>
<path d="M1755 2771 c-3 -5 -1 -12 5 -16 12 -7 30 2 30 16 0 12 -27 12 -35 0z"/>
<path d="M1810 2769 c0 -11 25 -22 39 -17 6 1 -1 8 -14 15 -14 6 -25 7 -25 2z"/>
<path d="M1937 2769 c-10 -6 -25 -8 -32 -5 -8 3 -17 1 -20 -5 -4 -6 7 -9 27
-9 18 0 44 -1 57 -2 15 -2 26 3 28 12 4 11 2 12 -5 2 -5 -7 -16 -10 -26 -6
-14 5 -15 9 -4 15 19 13 -4 10 -25 -2z"/>
<path d="M2095 2770 c-3 -4 -14 -6 -25 -3 -11 3 -20 0 -20 -6 0 -5 6 -8 14 -5
8 3 17 1 21 -5 10 -18 25 -12 18 7 -5 15 -4 14 9 -2 13 -16 16 -17 21 -3 6 16
-29 32 -38 17z"/>
<path d="M2439 2756 c-7 -14 -16 -26 -21 -26 -5 0 -7 -4 -3 -10 10 -16 33 0
40 27 8 35 -2 41 -16 9z"/>
<path d="M2164 2761 c-9 -9 -3 -22 6 -16 6 4 18 1 26 -6 12 -10 13 -9 8 6 -5
13 -4 16 4 11 7 -4 12 -3 12 2 0 9 -47 12 -56 3z"/>
<path d="M2320 2760 c19 -13 30 -13 30 0 0 6 -10 10 -22 10 -19 0 -20 -2 -8
-10z"/>
<path d="M3058 2753 c7 -3 16 -2 19 1 4 3 -2 6 -13 5 -11 0 -14 -3 -6 -6z"/>
<path d="M1367 2723 c-2 -5 -3 -16 -2 -25 2 -9 -4 -19 -12 -22 -7 -3 -12 -2
-9 2 2 4 1 14 -5 22 -6 10 -9 11 -9 3 0 -7 -8 -13 -19 -13 -23 0 -47 -25 -31
-35 5 -3 10 -1 10 6 0 8 4 8 15 -1 11 -9 15 -9 15 -1 0 7 10 10 25 7 27 -5 29
-3 39 37 6 24 -6 38 -17 20z"/>
<path d="M1438 2723 c7 -3 16 -2 19 1 4 3 -2 6 -13 5 -11 0 -14 -3 -6 -6z"/>
<path d="M1240 2710 c0 -5 5 -10 10 -10 6 0 10 5 10 10 0 6 -4 10 -10 10 -5 0
-10 -4 -10 -10z"/>
<path d="M2260 2711 c0 -5 5 -13 10 -16 6 -3 10 -2 10 4 0 5 -4 13 -10 16 -5
3 -10 2 -10 -4z"/>
<path d="M1275 2700 c3 -5 12 -7 20 -3 21 7 19 13 -6 13 -11 0 -18 -4 -14 -10z"/>
<path d="M1403 2698 c0 -7 -4 -21 -8 -30 -5 -14 -2 -16 16 -13 13 3 27 -1 32
-8 6 -8 7 -6 3 6 -5 16 -1 18 31 15 31 -2 38 0 41 17 2 16 1 17 -7 6 -8 -13
-12 -13 -27 0 -11 9 -15 9 -10 2 4 -7 2 -13 -3 -13 -6 0 -11 5 -11 11 0 6 -7
3 -16 -5 -19 -20 -22 -20 -20 0 0 9 -4 19 -10 21 -6 2 -11 -2 -11 -9z"/>
<path d="M1543 2680 c1 -20 12 -26 20 -12 3 4 -1 13 -8 19 -11 10 -13 9 -12
-7z"/>
<path d="M1710 2693 c-8 -2 -21 -7 -29 -9 -8 -2 -12 -7 -9 -10 3 -2 17 0 31 5
17 7 28 7 32 1 4 -6 14 -9 23 -9 15 1 15 2 0 6 -10 2 -18 9 -18 14 0 10 -6 10
-30 2z"/>
<path d="M1780 2686 c0 -8 4 -17 9 -20 5 -4 7 3 4 14 -6 23 -13 26 -13 6z"/>
<path d="M1865 2682 c-8 -21 -3 -22 17 -2 14 13 15 17 3 17 -8 0 -17 -7 -20
-15z"/>
<path d="M1930 2687 c0 -10 8 -17 18 -17 9 0 13 4 7 8 -5 4 -13 11 -17 16 -5
5 -8 2 -8 -7z"/>
<path d="M2175 2678 c10 -32 25 -46 25 -24 0 9 5 14 10 11 17 -11 11 7 -7 21
-26 20 -35 17 -28 -8z"/>
<path d="M2302 2685 c-11 -13 -9 -15 15 -14 15 0 22 3 15 6 -6 2 -10 9 -6 14
9 15 -10 10 -24 -6z"/>
<path d="M3070 2687 c0 -19 16 -31 24 -18 3 5 -1 14 -9 21 -12 10 -15 10 -15
-3z"/>
<path d="M1614 2680 c2 -16 20 -14 24 2 3 10 2 10 -6 -1 -7 -9 -11 -10 -15 -2
-4 7 -5 8 -3 1z"/>
<path d="M1830 2679 c0 -5 5 -7 10 -4 6 3 10 8 10 11 0 2 -4 4 -10 4 -5 0 -10
-5 -10 -11z"/>
<path d="M1980 2676 c0 -9 5 -16 10 -16 6 0 10 4 10 9 0 6 -4 13 -10 16 -5 3
-10 -1 -10 -9z"/>
<path d="M2650 2680 c0 -6 7 -10 15 -10 8 0 15 2 15 4 0 2 -7 6 -15 10 -8 3
-15 1 -15 -4z"/>
<path d="M2755 2680 c3 -5 14 -10 23 -10 15 0 15 2 2 10 -20 13 -33 13 -25 0z"/>
<path d="M2828 2683 c7 -3 16 -2 19 1 4 3 -2 6 -13 5 -11 0 -14 -3 -6 -6z"/>
<path d="M2861 2677 c-8 -10 -7 -14 4 -14 8 0 15 6 15 14 0 7 -2 13 -4 13 -2
0 -9 -6 -15 -13z"/>
<path d="M2230 2670 c0 -5 5 -10 11 -10 5 0 7 5 4 10 -3 6 -8 10 -11 10 -2 0
-4 -4 -4 -10z"/>
<path d="M3542 2671 c-11 -7 -11 -9 1 -14 9 -3 18 1 21 9 6 16 -2 18 -22 5z"/>
<path d="M1180 2636 c0 -15 -3 -17 -11 -9 -10 10 -46 3 -69 -15 -6 -4 22 -22
35 -22 6 0 4 4 -3 9 -11 7 -11 9 2 14 12 5 16 0 16 -23 0 -26 2 -28 23 -21 25
9 34 41 18 68 -10 17 -10 17 -11 -1z"/>
<path d="M1510 2620 c0 -21 -2 -22 -11 -10 -9 13 -10 13 -6 -2 3 -9 0 -19 -8
-22 -9 -3 -12 0 -8 10 7 20 -10 18 -23 -3 -9 -15 -7 -18 12 -19 30 -2 72 42
56 58 -9 9 -12 6 -12 -12z"/>
<path d="M1596 2625 c4 -8 8 -15 10 -15 2 0 4 7 4 15 0 8 -4 15 -10 15 -5 0
-7 -7 -4 -15z"/>
<path d="M1627 2623 c-4 -3 -7 -13 -7 -22 1 -13 3 -13 11 2 11 19 8 33 -4 20z"/>
<path d="M1245 2610 c-3 -5 -1 -10 4 -10 6 0 11 5 11 10 0 6 -2 10 -4 10 -3 0
-8 -4 -11 -10z"/>
<path d="M1306 2608 c3 -4 9 -8 15 -8 5 0 9 4 9 8 0 5 -7 9 -15 9 -8 0 -12 -4
-9 -9z"/>
<path d="M2991 2591 c-7 -5 -12 -14 -10 -20 2 -6 10 -2 17 9 14 22 13 23 -7
11z"/>
<path d="M3030 2592 c0 -11 23 -22 46 -22 8 0 14 5 14 11 0 6 -7 8 -16 5 -9
-4 -23 -1 -30 5 -9 7 -14 8 -14 1z"/>
<path d="M1571 2587 c2 -1 12 -9 22 -16 14 -12 17 -11 17 3 0 10 -8 16 -22 16
-12 0 -19 -1 -17 -3z"/>
<path d="M1647 2584 c-14 -14 -7 -19 29 -22 25 -1 34 2 32 10 -5 14 -50 23
-61 12z"/>
<path d="M3005 2570 c-4 -6 3 -10 14 -10 25 0 27 6 6 13 -8 4 -17 2 -20 -3z"/>
<path d="M1653 2549 c-6 -6 -8 -19 -6 -30 8 -29 18 -23 18 11 0 17 0 30 0 30
-1 0 -6 -5 -12 -11z"/>
<path d="M1024 2528 c-3 -5 4 -8 15 -8 12 0 21 -4 21 -10 0 -5 5 -10 11 -10 5
0 7 5 4 10 -6 9 44 15 90 10 11 -1 17 1 13 5 -10 10 -148 12 -154 3z"/>
<path d="M1235 2530 c-3 -5 -1 -10 4 -10 6 0 11 5 11 10 0 6 -2 10 -4 10 -3 0
-8 -4 -11 -10z"/>
<path d="M1377 2528 c-7 -4 12 -8 41 -8 28 0 52 4 52 8 0 11 -77 10 -93 0z"/>
<path d="M2111 2528 c8 -7 18 -21 22 -30 8 -23 19 -23 47 2 13 11 30 20 38 20
22 0 6 13 -18 15 -11 1 -18 -1 -15 -3 5 -6 -26 -31 -38 -32 -5 0 -6 4 -3 9 3
4 -7 13 -22 20 -22 9 -24 9 -11 -1z"/>
<path d="M1270 2521 c0 -5 9 -7 20 -4 11 3 20 7 20 9 0 2 -9 4 -20 4 -11 0
-20 -4 -20 -9z"/>
<path d="M1559 2521 c9 -6 10 -11 2 -15 -6 -4 -9 -12 -6 -17 4 -5 8 -19 10
-30 8 -40 15 -33 10 9 -7 55 11 63 24 10 l9 -43 -1 46 c-2 43 -4 45 -32 47
-20 1 -26 -1 -16 -7z"/>
<path d="M1970 2520 c0 -5 4 -10 9 -10 6 0 13 5 16 10 3 6 -1 10 -9 10 -9 0
-16 -4 -16 -10z"/>
<path d="M1425 2500 c3 -6 1 -10 -6 -10 -7 0 -10 -3 -6 -6 3 -3 13 -2 22 4 16
8 16 9 1 15 -10 4 -15 3 -11 -3z"/>
<path d="M2040 2499 c0 -5 5 -7 10 -4 6 3 10 8 10 11 0 2 -4 4 -10 4 -5 0 -10
-5 -10 -11z"/>
<path d="M830 2490 c0 -5 5 -10 11 -10 5 0 7 5 4 10 -3 6 -8 10 -11 10 -2 0
-4 -4 -4 -10z"/>
<path d="M1342 2476 c-1 -15 1 -17 7 -7 5 7 15 17 22 22 10 6 8 8 -7 7 -12 -1
-21 -10 -22 -22z"/>
<path d="M1710 2462 c0 -4 16 -6 36 -4 l36 4 -17 -26 c-10 -14 -14 -26 -10
-26 5 0 0 -10 -11 -22 -12 -14 -13 -18 -3 -10 9 6 19 8 23 4 4 -4 6 0 4 8 -2
11 5 14 25 13 18 -1 25 2 21 9 -5 7 -1 9 9 5 10 -3 17 -2 17 4 0 6 -11 8 -29
4 -17 -3 -32 -2 -36 4 -3 6 -2 11 3 11 6 0 12 6 15 13 4 10 -7 14 -39 16 -24
1 -44 -2 -44 -7z"/>
<path d="M1985 2460 c-3 -6 1 -7 9 -4 18 7 21 14 7 14 -6 0 -13 -4 -16 -10z"/>
<path d="M2110 2456 c-6 -8 -18 -12 -26 -9 -8 3 -14 0 -14 -6 0 -6 -3 -10 -7
-10 -22 4 -33 -2 -27 -13 5 -8 0 -7 -11 2 -17 14 -18 13 -12 -2 4 -13 1 -18
-10 -18 -14 0 -14 -2 2 -14 20 -15 40 -12 30 5 -3 5 1 6 9 3 9 -3 16 -1 16 5
0 6 5 11 10 11 6 0 20 9 32 20 12 10 25 17 29 14 5 -3 6 2 3 10 -7 20 -9 20
-24 2z"/>
<path d="M950 2445 c0 -8 -5 -15 -11 -15 -5 0 -7 -5 -4 -10 4 -6 26 -10 49 -9
23 2 48 -1 56 -6 9 -5 11 -4 6 3 -4 7 -1 12 6 13 7 1 2 4 -12 8 -14 4 -31 3
-37 -2 -9 -6 -13 -6 -13 2 0 7 -4 9 -10 6 -5 -3 -10 1 -10 9 0 9 -4 16 -10 16
-5 0 -10 -7 -10 -15z"/>
<path d="M1191 2446 c-1 -16 -4 -17 -13 -8 -22 22 -27 13 -25 -43 1 -34 6 -55
14 -55 6 0 14 -6 16 -12 3 -8 6 -6 6 5 1 9 -3 17 -9 17 -5 0 -10 17 -10 38 0
27 3 33 10 22 13 -21 22 -7 17 27 -2 15 -5 19 -6 9z"/>
<path d="M1093 2443 c-23 -4 -29 -14 -16 -26 3 -4 12 -2 18 3 9 8 14 5 18 -10
4 -15 0 -20 -16 -20 -11 0 -18 -3 -14 -6 3 -4 18 -3 34 0 19 5 23 10 14 16 -8
4 -10 13 -7 19 4 6 2 11 -4 11 -6 0 -8 5 -5 10 3 6 5 9 3 9 -2 -1 -13 -4 -25
-6z"/>
<path d="M1336 2427 c3 -10 9 -15 12 -12 3 3 0 11 -7 18 -10 9 -11 8 -5 -6z"/>
<path d="M1718 2433 c-10 -2 -18 -9 -18 -15 0 -5 7 -7 16 -4 11 4 15 2 11 -8
-4 -9 -1 -13 6 -10 12 4 19 45 7 43 -3 -1 -13 -3 -22 -6z"/>
<path d="M1280 2420 c0 -5 10 -10 23 -10 18 0 19 2 7 10 -19 13 -30 13 -30 0z"/>
<path d="M1367 2424 c-3 -3 -3 -12 0 -20 4 -10 0 -12 -11 -8 -10 4 -16 1 -16
-7 0 -7 3 -9 7 -6 3 4 13 1 22 -5 9 -7 13 -8 8 -3 -4 4 0 19 8 32 12 18 13 23
2 23 -8 0 -16 -3 -20 -6z"/>
<path d="M1920 2420 c0 -5 5 -10 11 -10 5 0 7 5 4 10 -3 6 -8 10 -11 10 -2 0
-4 -4 -4 -10z"/>
<path d="M2920 2423 c0 -20 28 -35 46 -25 11 6 13 11 5 16 -6 4 -11 2 -11 -5
0 -7 -8 -5 -20 6 -11 10 -20 13 -20 8z"/>
<path d="M1594 2403 c3 -6 0 -14 -7 -17 -8 -3 -8 -5 -1 -5 6 -1 19 8 29 18 16
19 16 20 -4 18 -12 -1 -20 -6 -17 -14z"/>
<path d="M3538 2413 c6 -2 18 -2 25 0 6 3 1 5 -13 5 -14 0 -19 -2 -12 -5z"/>
<path d="M850 2351 c-20 -6 -22 -8 -8 -13 9 -4 22 -1 28 8 7 8 11 14 9 13 -2
-1 -15 -4 -29 -8z"/>
<path d="M955 2349 c-11 -17 1 -21 15 -4 8 9 8 15 2 15 -6 0 -14 -5 -17 -11z"/>
<path d="M1095 2349 c-4 -6 -5 -12 -2 -15 2 -3 7 2 10 11 7 17 1 20 -8 4z"/>
<path d="M1350 2350 c-8 -5 -12 -12 -9 -15 4 -3 12 1 19 10 14 17 11 19 -10 5z"/>
<path d="M1800 2353 c0 -5 5 -15 10 -23 8 -12 10 -11 10 8 0 12 -4 22 -10 22
-5 0 -10 -3 -10 -7z"/>
<path d="M1955 2350 c-3 -5 -2 -10 4 -10 5 0 13 5 16 10 3 6 2 10 -4 10 -5 0
-13 -4 -16 -10z"/>
<path d="M1271 2334 c0 -11 3 -14 6 -6 3 7 2 16 -1 19 -3 4 -6 -2 -5 -13z"/>
<path d="M1306 2335 c4 -8 10 -12 15 -9 14 8 10 24 -6 24 -9 0 -12 -6 -9 -15z"/>
<path d="M1775 2330 c2 -31 15 -37 15 -7 0 15 -4 27 -8 27 -5 0 -8 -9 -7 -20z"/>
<path d="M1986 2334 c-5 -14 -4 -15 9 -4 17 14 19 20 6 20 -5 0 -12 -7 -15
-16z"/>
<path d="M2814 2330 c0 -13 4 -16 10 -10 7 7 7 13 0 20 -6 6 -10 3 -10 -10z"/>
<path d="M850 2309 c0 -5 5 -7 10 -4 6 3 10 8 10 11 0 2 -4 4 -10 4 -5 0 -10
-5 -10 -11z"/>
<path d="M1836 2298 c2 -13 2 -18 -2 -11 -8 16 -34 5 -34 -16 0 -13 2 -14 9
-2 8 12 12 12 24 2 9 -6 17 -8 20 -4 5 8 -9 53 -17 53 -2 0 -2 -10 0 -22z"/>
<path d="M1957 2313 c-4 -3 -7 -13 -7 -21 0 -18 13 -7 16 13 2 17 1 18 -9 8z"/>
<path d="M1171 2294 c0 -11 3 -14 6 -6 3 7 2 16 -1 19 -3 4 -6 -2 -5 -13z"/>
<path d="M823 2283 c1 -19 47 -29 47 -11 0 5 -4 7 -9 3 -5 -3 -16 2 -25 10
-13 14 -15 13 -13 -2z"/>
<path d="M770 2269 c20 -8 22 -12 10 -19 -12 -8 -10 -10 8 -10 12 0 22 3 22 6
0 11 -34 33 -50 33 -8 0 -4 -5 10 -10z"/>
<path d="M1300 2270 c0 -5 4 -10 9 -10 6 0 13 5 16 10 3 6 -1 10 -9 10 -9 0
-16 -4 -16 -10z"/>
<path d="M1530 2260 c-6 -11 -9 -20 -8 -21 35 -9 55 2 26 14 -10 4 -9 8 2 16
10 7 11 11 3 11 -7 0 -17 -9 -23 -20z"/>
<path d="M1907 2261 c-3 -14 0 -17 14 -14 22 6 25 19 5 26 -8 3 -16 -2 -19
-12z"/>
<path d="M895 2260 c3 -6 -4 -10 -17 -10 -15 0 -19 -3 -11 -8 7 -4 30 -6 50
-3 27 4 31 6 16 9 -13 2 -23 8 -23 13 0 5 -5 9 -11 9 -5 0 -7 -4 -4 -10z"/>
<path d="M1275 2253 c-3 -10 -3 -14 1 -10 4 4 13 2 21 -4 17 -15 17 -1 -1 16
-12 12 -15 12 -21 -2z"/>
<path d="M1046 2251 c-12 -5 -15 -10 -9 -14 6 -4 16 0 23 8 14 17 13 17 -14 6z"/>
<path d="M1710 2249 c-17 -5 -19 -7 -7 -8 10 -1 15 -5 12 -11 -3 -5 -1 -10 6
-10 8 0 9 -3 0 -13 -12 -15 -5 -27 14 -27 13 0 19 67 7 73 -4 2 -18 1 -32 -4z"/>
<path d="M1586 2242 c-3 -5 1 -9 9 -9 8 0 15 4 15 9 0 4 -4 8 -9 8 -6 0 -12
-4 -15 -8z"/>
<path d="M1815 2240 c3 -5 8 -10 11 -10 2 0 4 5 4 10 0 6 -5 10 -11 10 -5 0
-7 -4 -4 -10z"/>
<path d="M3075 2229 c-4 -6 -5 -12 -2 -15 2 -3 7 2 10 11 7 17 1 20 -8 4z"/>
<path d="M2877 2219 c7 -7 15 -10 18 -7 3 3 -2 9 -12 12 -14 6 -15 5 -6 -5z"/>
<path d="M1830 2211 c0 -7 -4 -10 -9 -7 -5 3 -15 -2 -22 -11 -8 -9 -9 -14 -3
-10 7 4 14 1 17 -7 3 -8 -1 -17 -10 -20 -9 -4 -14 -9 -11 -11 10 -11 39 8 34
21 -3 9 2 14 13 14 10 0 25 8 32 17 12 15 12 16 -2 11 -9 -4 -22 -1 -28 5 -8
8 -11 8 -11 -2z"/>
<path d="M2237 2206 c-4 -10 -5 -21 -2 -24 9 -9 17 6 13 25 -3 17 -4 17 -11
-1z"/>
<path d="M2272 2200 c0 -14 2 -19 5 -12 2 6 2 18 0 25 -3 6 -5 1 -5 -13z"/>
<path d="M685 2190 c-3 -5 -1 -10 4 -10 6 0 11 5 11 10 0 6 -2 10 -4 10 -3 0
-8 -4 -11 -10z"/>
<path d="M735 2190 c-3 -5 -1 -10 4 -10 6 0 11 5 11 10 0 6 -2 10 -4 10 -3 0
-8 -4 -11 -10z"/>
<path d="M777 2189 c7 -7 15 -10 18 -7 3 3 -2 9 -12 12 -14 6 -15 5 -6 -5z"/>
<path d="M2875 2190 c-3 -5 -1 -10 4 -10 6 0 11 5 11 10 0 6 -2 10 -4 10 -3 0
-8 -4 -11 -10z"/>
<path d="M858 2183 c7 -3 16 -2 19 1 4 3 -2 6 -13 5 -11 0 -14 -3 -6 -6z"/>
<path d="M1615 2180 c-3 -5 -1 -10 4 -10 6 0 11 5 11 10 0 6 -2 10 -4 10 -3 0
-8 -4 -11 -10z"/>
<path d="M578 2163 c7 -3 16 -2 19 1 4 3 -2 6 -13 5 -11 0 -14 -3 -6 -6z"/>
<path d="M703 2163 c9 -2 23 -2 30 0 6 3 -1 5 -18 5 -16 0 -22 -2 -12 -5z"/>
<path d="M1810 2133 c-8 -3 -18 -11 -22 -17 -5 -8 -8 -7 -8 2 0 6 -4 12 -10
12 -5 0 -9 -6 -7 -12 1 -8 -6 -12 -16 -10 -15 3 -18 -1 -12 -20 5 -20 4 -21
-7 -7 -7 9 -19 14 -27 11 -8 -3 -11 0 -7 7 4 6 1 11 -8 11 -21 0 -21 -1 14
-40 16 -18 27 -37 24 -41 -3 -5 -1 -9 5 -9 5 0 13 5 16 10 4 7 13 6 27 -1 15
-8 19 -8 14 0 -8 12 16 41 33 41 6 0 11 5 11 10 0 6 -7 10 -16 10 -17 0 -44
-23 -44 -38 0 -5 -9 -8 -20 -7 -24 2 -40 15 -17 15 9 0 27 10 40 23 14 12 35
30 48 39 24 17 18 22 -11 11z"/>
<path d="M2476 2122 c-2 -4 -1 -14 5 -22 7 -12 9 -10 9 8 0 23 -5 28 -14 14z"/>
<path d="M1001 2084 c0 -11 3 -14 6 -6 3 7 2 16 -1 19 -3 4 -6 -2 -5 -13z"/>
<path d="M3300 2093 c0 -17 12 -22 34 -13 17 6 18 7 3 13 -10 4 -17 1 -17 -6
0 -8 -4 -6 -10 3 -6 9 -10 10 -10 3z"/>
<path d="M3220 2060 c-8 -5 -10 -10 -5 -10 6 0 17 5 25 10 8 5 11 10 5 10 -5
0 -17 -5 -25 -10z"/>
<path d="M1807 2053 c-12 -11 -8 -23 8 -23 8 0 15 7 15 15 0 16 -12 20 -23 8z"/>
<path d="M3170 2049 c0 -5 5 -7 10 -4 6 3 10 8 10 11 0 2 -4 4 -10 4 -5 0 -10
-5 -10 -11z"/>
<path d="M3317 2053 c-2 -5 -1 -18 2 -31 6 -22 6 -22 19 -2 10 17 10 20 -5 20
-15 0 -16 2 -3 10 9 6 10 10 3 10 -6 0 -14 -3 -16 -7z"/>
<path d="M3373 2037 c-4 -6 -1 -7 6 -3 8 5 14 0 18 -13 3 -12 9 -21 15 -21 5
0 4 8 -1 19 -6 10 -8 20 -6 23 3 3 -2 5 -10 5 -9 0 -19 -5 -22 -10z"/>
<path d="M612 2013 c2 -9 10 -19 18 -21 12 -4 13 -3 3 10 -7 8 -10 18 -6 21 3
4 1 7 -6 7 -7 0 -11 -8 -9 -17z"/>
<path d="M2174 2019 c-3 -6 -1 -15 5 -20 6 -5 9 -6 6 -3 -3 4 0 13 6 21 8 9 8
13 1 13 -6 0 -14 -5 -18 -11z"/>
<path d="M3196 2015 c-11 -8 -18 -17 -15 -19 2 -2 15 4 28 15 27 22 15 26 -13
4z"/>
<path d="M646 2008 c3 -4 9 -8 15 -8 5 0 9 4 9 8 0 5 -7 9 -15 9 -8 0 -12 -4
-9 -9z"/>
<path d="M2313 1983 c-13 -2 -23 -10 -23 -16 0 -7 -5 -6 -11 3 -9 12 -10 11
-6 -7 3 -15 -1 -23 -15 -26 -13 -4 -17 -10 -12 -18 5 -9 14 -4 32 17 14 16 37
34 51 41 27 12 22 13 -16 6z"/>
<path d="M2240 1965 c0 -8 4 -15 10 -15 5 0 7 7 4 15 -4 8 -8 15 -10 15 -2 0
-4 -7 -4 -15z"/>
<path d="M3450 1972 c0 -4 10 -9 22 -9 18 -2 20 0 8 7 -18 12 -30 13 -30 2z"/>
<path d="M2175 1960 c3 -5 8 -10 11 -10 2 0 4 5 4 10 0 6 -5 10 -11 10 -5 0
-7 -4 -4 -10z"/>
<path d="M1559 1948 c-5 -22 -4 -34 5 -40 6 -4 5 -13 -4 -22 -11 -14 -10 -16
4 -10 9 3 16 14 15 23 -1 19 -17 59 -20 49z"/>
<path d="M3417 1932 c1 -8 3 -16 3 -18 0 -3 5 -2 10 1 6 3 10 11 10 16 0 6 -4
8 -9 5 -5 -4 -11 -3 -14 1 -2 5 -2 2 0 -5z"/>
<path d="M935 1930 c-3 -5 -1 -10 4 -10 6 0 11 5 11 10 0 6 -2 10 -4 10 -3 0
-8 -4 -11 -10z"/>
<path d="M3387 1920 c3 -11 9 -20 15 -20 5 0 4 9 -2 20 -6 11 -12 20 -14 20
-2 0 -2 -9 1 -20z"/>
<path d="M3453 1915 c0 -14 3 -25 8 -25 5 0 9 4 9 9 0 5 3 16 6 25 4 10 1 16
-9 16 -9 0 -14 -10 -14 -25z"/>
<path d="M3493 1923 c-15 -5 -17 -23 -4 -23 5 0 11 7 15 15 3 8 4 15 3 14 -1
0 -8 -3 -14 -6z"/>
<path d="M3567 1911 c-4 -16 -11 -22 -21 -18 -9 4 -16 2 -16 -3 0 -6 4 -10 9
-10 14 0 9 -39 -6 -44 -7 -3 -13 0 -13 7 0 7 -12 -1 -25 -16 -18 -20 -25 -23
-25 -12 0 8 7 18 15 21 8 4 15 13 15 21 0 9 6 13 14 10 10 -4 13 -1 9 9 -4 10
-9 12 -16 5 -5 -5 -16 -7 -23 -4 -8 3 -14 0 -14 -7 0 -6 5 -8 10 -5 6 3 10 1
10 -4 0 -14 -13 -14 -28 1 -9 9 -16 7 -32 -7 -14 -13 -20 -14 -20 -5 0 7 -2
11 -5 8 -9 -8 6 -38 16 -32 5 3 9 -1 9 -9 0 -8 -8 -14 -17 -13 -10 0 -18 -6
-18 -14 0 -10 8 -14 24 -12 18 2 22 -2 17 -14 -3 -8 -6 -19 -6 -22 0 -4 -5 0
-10 8 -8 13 -10 12 -10 -4 0 -15 -3 -16 -15 -6 -8 7 -21 10 -30 7 -8 -4 -17
-2 -20 4 -4 5 -3 9 2 8 25 -4 53 2 48 11 -4 6 -11 7 -17 4 -7 -5 -9 -1 -5 8 4
12 0 15 -18 13 -17 -1 -26 4 -30 16 -4 11 -11 19 -16 19 -6 0 -7 -4 -4 -10 3
-5 1 -18 -4 -27 -6 -10 -11 -13 -11 -6 0 13 -40 13 -40 0 0 -5 8 -6 18 -3 16
6 16 5 0 -7 -15 -12 -15 -14 0 -25 9 -7 11 -10 4 -6 -11 5 -12 2 -3 -15 11
-19 14 -20 26 -7 18 17 20 30 3 20 -7 -4 -8 -3 -4 5 12 18 39 -3 40 -32 1 -16
-3 -23 -11 -20 -7 3 -10 9 -7 14 9 15 -13 10 -25 -5 -10 -12 -10 -20 0 -38 7
-13 14 -27 15 -33 0 -5 2 -13 4 -17 4 -11 7 -26 9 -38 1 -7 9 -6 24 2 39 21
56 20 49 -4 -5 -19 -6 -19 -17 -4 -11 15 -13 14 -20 -6 -14 -41 -13 -69 1 -64
8 3 14 0 14 -7 0 -8 3 -8 9 2 5 7 11 9 14 4 10 -16 46 -8 61 13 8 10 17 16 20
13 10 -9 -5 -40 -15 -33 -13 8 -11 -30 3 -44 9 -9 9 -15 -1 -24 -11 -10 -12
-10 -7 -1 10 18 -22 62 -45 60 -10 -1 -19 -4 -19 -8 0 -4 -10 -5 -22 -2 -20 4
-21 3 -8 -9 9 -7 21 -32 28 -55 10 -32 18 -43 32 -43 11 0 20 -4 20 -10 0 -9
-21 -5 -45 9 -5 3 -50 7 -98 8 -86 3 -117 14 -117 42 0 5 -4 13 -10 16 -5 3
-7 0 -5 -7 4 -9 -3 -14 -17 -15 -17 -2 -19 0 -8 7 12 7 12 12 -4 29 -14 16
-21 17 -31 8 -7 -7 -11 -16 -8 -21 3 -4 9 -3 13 4 5 7 13 9 21 5 18 -12 -19
-25 -49 -18 -17 4 -21 2 -16 -11 3 -8 9 -15 12 -14 19 2 32 -3 32 -13 0 -6 -9
-8 -22 -3 -19 6 -21 5 -11 -8 10 -12 10 -15 -5 -15 -22 0 -35 19 -19 29 8 5 6
12 -6 26 -20 22 -23 39 -4 24 10 -8 21 -3 44 19 l32 29 20 -22 c12 -12 24 -18
28 -15 3 4 1 7 -6 7 -7 0 -10 4 -6 9 3 5 1 12 -5 16 -7 4 -7 13 1 26 13 25 13
25 -34 32 -29 4 -39 2 -44 -9 -4 -12 -8 -12 -13 -4 -4 7 -27 12 -51 11 -88 -2
-89 -2 -63 -39 8 -12 10 -22 5 -22 -6 0 -11 5 -11 11 0 6 -7 8 -16 5 -13 -5
-14 -4 -6 7 9 10 8 17 0 25 -20 20 -55 14 -61 -9 -4 -15 -2 -19 9 -15 8 3 14
1 14 -4 0 -6 -4 -10 -10 -10 -5 0 -10 -5 -10 -12 0 -9 3 -9 12 0 16 16 28 15
28 -2 0 -9 -10 -12 -31 -10 -27 3 -31 1 -26 -16 3 -11 1 -18 -4 -14 -9 5 -13
-13 -11 -51 0 -11 -1 -15 -4 -9 -6 15 -64 5 -71 -12 -3 -8 -9 -14 -14 -14 -4
0 -6 6 -3 14 4 10 -4 13 -30 13 -23 -1 -32 -5 -26 -12 5 -6 0 -11 -16 -11 -18
-1 -24 3 -24 17 0 16 -2 18 -14 7 -7 -7 -11 -20 -9 -28 3 -10 -1 -8 -11 4 -16
20 -20 16 -17 -15 2 -18 -25 -33 -40 -23 -5 3 -8 0 -7 -7 2 -7 -8 -15 -22 -19
-14 -4 -24 -12 -23 -18 2 -7 -1 -12 -5 -12 -5 0 -9 15 -9 33 -1 26 1 28 7 12
7 -17 9 -17 9 -3 1 10 -9 22 -21 29 -18 10 -20 9 -15 -5 4 -9 4 -16 1 -16 -3
0 -10 14 -16 31 -6 16 -13 28 -15 25 -10 -10 -11 -56 -2 -50 5 3 9 -1 9 -8 0
-7 -13 -14 -30 -15 -17 -1 -30 2 -30 7 0 6 4 10 8 10 5 0 9 6 9 14 0 8 -6 12
-14 9 -8 -3 -12 -8 -9 -11 8 -8 -14 -43 -24 -37 -4 3 -6 -5 -2 -17 3 -14 2
-19 -6 -14 -7 4 -12 1 -12 -6 0 -9 -3 -9 -10 2 -9 13 -11 13 -20 0 -6 -10 -10
-11 -10 -2 0 16 -27 16 -34 0 -3 -7 -4 -1 -2 15 3 24 0 27 -28 28 -17 1 -35 0
-41 -1 -5 -1 -20 -2 -33 -2 -16 0 -21 -5 -18 -15 3 -8 1 -11 -4 -8 -6 4 -10
-5 -10 -20 0 -15 -4 -24 -10 -20 -5 3 -10 -2 -11 -12 0 -15 -2 -14 -11 5 -17
35 -43 24 -44 -21 -1 -20 3 -37 8 -37 5 0 6 5 3 11 -4 6 -1 9 6 8 19 -3 52 12
62 28 12 19 28 16 20 -4 -4 -9 -2 -14 3 -10 6 3 16 2 23 -2 9 -6 4 -8 -14 -8
-14 -1 -32 -6 -38 -13 -9 -10 -8 -12 6 -7 9 4 17 2 17 -3 0 -6 5 -10 11 -10 5
0 8 4 5 8 -3 5 1 9 9 9 20 0 19 -10 -3 -30 -19 -18 -34 -22 -29 -9 1 4 -2 8
-8 10 -5 2 -12 -7 -15 -20 -4 -16 -8 -19 -14 -10 -4 7 -14 11 -22 8 -8 -3 -14
1 -14 10 0 10 6 14 15 11 8 -4 17 -2 20 3 8 13 -15 15 -72 6 -17 -3 -29 -16
-15 -16 6 0 9 -7 5 -16 -3 -9 0 -20 8 -25 19 -12 29 -11 29 2 0 5 -4 8 -8 5
-5 -3 -9 1 -9 9 0 19 17 8 26 -17 6 -17 9 -18 22 -6 8 7 25 13 39 13 20 0 25
-5 24 -25 -1 -14 -3 -29 -5 -35 -2 -5 1 -10 6 -10 6 0 9 5 7 12 -2 8 3 10 13
7 10 -4 15 -2 13 6 -2 7 3 15 11 18 8 3 11 0 7 -7 -4 -6 -2 -11 5 -11 7 0 4
-7 -7 -16 -10 -8 -13 -12 -5 -8 9 4 12 2 9 -7 -3 -8 -15 -13 -26 -11 -12 2
-22 -2 -22 -7 0 -6 9 -11 20 -11 11 0 20 -5 20 -11 0 -5 -4 -7 -10 -4 -6 3 -7
-1 -4 -9 3 -9 2 -16 -3 -16 -9 0 -50 44 -43 47 3 1 2 4 -1 7 -3 3 -14 -3 -23
-13 -13 -14 -15 -24 -8 -38 7 -13 6 -22 -6 -33 -9 -8 -19 -15 -22 -15 -3 0 -4
-3 -3 -6 1 -3 -9 -4 -22 -1 -14 2 -25 8 -25 13 0 5 -11 4 -25 -3 -13 -6 -21
-16 -18 -22 4 -6 -1 -5 -10 3 -21 17 -22 35 -2 28 11 -5 12 -1 5 19 -7 17 -6
32 0 44 13 24 35 17 37 -12 2 -25 24 -42 34 -26 4 7 9 4 12 -8 4 -16 5 -17 6
-1 0 9 6 17 13 17 16 0 -8 25 -25 25 -7 1 -11 6 -9 13 1 7 -7 12 -18 12 -22 0
-27 15 -7 23 8 4 9 6 0 6 -6 1 -18 -6 -27 -14 -8 -8 -20 -15 -28 -15 -7 0 -2
10 12 24 14 13 29 21 34 18 5 -3 6 0 2 6 -8 13 -36 5 -36 -10 0 -6 -7 -8 -14
-5 -10 4 -13 1 -10 -8 4 -9 -6 -22 -26 -33 -28 -18 -29 -20 -11 -25 14 -3 21
0 21 9 0 8 5 14 11 14 6 0 8 -7 5 -16 -3 -9 -6 -28 -6 -42 0 -15 -4 -22 -8
-16 -4 7 -15 8 -27 3 -11 -4 -14 -8 -6 -8 11 -1 11 -4 1 -16 -7 -8 -17 -12
-24 -8 -6 4 -5 -1 3 -10 7 -9 10 -17 6 -17 -4 0 -1 -8 6 -17 10 -11 10 -14 2
-9 -7 4 -13 3 -13 -2 0 -14 26 -33 33 -25 4 3 7 -6 7 -20 0 -20 5 -27 20 -27
11 0 20 -4 20 -10 0 -5 -6 -10 -13 -10 -7 0 -19 -9 -27 -20 -15 -21 -50 -28
-50 -9 0 5 -5 7 -11 3 -6 -3 -9 -15 -6 -25 4 -16 2 -17 -15 -8 -24 13 -52 4
-42 -13 6 -10 4 -10 -8 0 -13 10 -17 10 -21 0 -3 -7 -6 -8 -6 -2 -1 6 -12 9
-25 7 -22 -5 -24 -8 -19 -54 2 -27 0 -49 -5 -49 -5 0 -14 -10 -21 -23 -6 -12
-9 -14 -6 -4 3 10 -2 20 -11 24 -9 3 -15 16 -14 32 5 67 1 77 -35 90 -19 7
-35 17 -35 22 0 6 -6 7 -12 4 -7 -4 -4 0 6 9 10 8 23 13 29 9 6 -3 7 -1 3 5
-4 7 -15 8 -29 3 -26 -10 -34 -49 -17 -82 8 -15 9 -19 1 -15 -7 5 -11 -3 -11
-19 l0 -27 -70 4 c-65 3 -70 2 -69 -17 0 -11 3 -14 6 -7 2 6 9 12 15 12 6 0 5
-6 -2 -15 -7 -9 -15 -13 -18 -10 -7 7 -42 -25 -42 -39 0 -7 4 -6 11 1 13 13
46 6 53 -13 3 -9 -1 -14 -13 -14 -11 0 -21 5 -23 12 -3 7 -7 5 -11 -5 -4 -12
-1 -20 11 -24 9 -4 23 -14 29 -22 11 -13 14 -14 22 -2 7 11 9 11 13 0 3 -9 6
-8 11 4 4 11 1 17 -8 17 -8 0 -12 6 -9 13 7 19 46 16 41 -3 -3 -13 1 -16 19
-12 13 2 21 8 18 13 -3 5 2 6 10 3 15 -6 20 -18 17 -38 -1 -4 -2 -28 -3 -53
l-1 -44 -39 2 c-26 2 -42 -2 -48 -11 -12 -19 -20 -9 -27 32 -5 36 -13 51 -13
25 0 -21 -19 -22 -26 -2 -4 8 -10 12 -15 9 -5 -3 -7 -10 -4 -15 4 -5 3 -9 -2
-9 -13 1 -64 79 -64 97 4 88 6 94 26 91 11 -2 19 -9 17 -16 -1 -8 2 -11 8 -7
5 3 10 13 10 21 0 13 -5 15 -27 13 -5 0 -11 10 -15 23 -5 21 -6 21 -7 2 -1
-17 -6 -20 -31 -16 -30 4 -37 28 -8 26 8 -1 15 4 15 11 0 7 -6 11 -12 8 -7 -2
-15 3 -18 11 -4 9 -17 16 -31 16 -31 0 -40 14 -38 61 2 25 -2 38 -13 42 -8 4
-15 17 -15 31 0 13 -4 26 -10 28 -11 3 14 96 30 112 16 16 11 30 -5 16 -8 -7
-15 -19 -15 -27 0 -10 -6 -12 -21 -8 -14 5 -25 1 -34 -11 -14 -20 -10 -38 6
-29 5 4 9 2 9 -4 0 -19 -25 -17 -37 3 -12 21 -12 21 -13 -4 0 -33 -10 -45 -37
-46 -18 0 -23 5 -23 23 0 13 -5 23 -11 23 -5 0 -7 4 -4 10 3 6 0 10 -8 10 -8
0 -17 -7 -21 -15 -3 -8 -2 -15 2 -15 5 0 7 -19 5 -41 l-3 -41 20 23 c14 17 19
20 20 9 0 -13 1 -13 11 0 8 11 12 12 16 2 2 -6 10 -9 16 -6 9 5 9 4 1 -5 -7
-7 -8 -29 -4 -58 4 -25 6 -56 3 -67 -3 -20 -3 -20 5 -1 5 11 8 41 7 67 -1 26
2 45 7 42 4 -3 8 -19 8 -35 0 -18 4 -28 10 -24 23 14 11 -20 -25 -73 -5 -7
-34 11 -29 19 3 5 -6 9 -19 9 -32 0 -41 -24 -22 -61 9 -16 11 -29 6 -29 -5 0
-12 6 -14 13 -4 9 -6 9 -6 0 -1 -7 -6 -13 -11 -13 -6 0 -10 10 -9 22 3 38 -1
59 -10 54 -4 -3 -6 -18 -3 -32 3 -17 1 -25 -5 -21 -6 4 -13 -4 -16 -18 -2 -14
0 -28 4 -31 5 -3 9 -20 9 -38 0 -33 20 -62 33 -49 4 3 7 -1 7 -11 0 -9 6 -19
14 -22 8 -3 13 -11 10 -19 -3 -7 1 -15 9 -18 9 -3 14 1 13 11 -1 13 9 18 35
20 37 3 37 3 25 35 -6 18 -15 35 -20 38 -5 4 1 10 13 14 11 3 21 11 21 16 0 6
-4 8 -9 5 -5 -3 -11 1 -14 9 -8 19 0 59 13 63 5 2 10 10 10 17 0 7 6 16 13 18
9 4 9 6 0 6 -7 1 -24 -16 -38 -37 -22 -32 -25 -33 -22 -13 2 14 9 27 16 29 23
8 45 65 55 146 1 11 7 21 13 23 7 3 9 -12 6 -41 -5 -38 -3 -45 15 -50 13 -4
19 -13 16 -21 -3 -8 1 -22 10 -30 17 -18 22 -75 6 -75 -5 0 -10 16 -10 35 0
22 -6 38 -15 41 -8 4 -15 14 -16 23 0 10 -2 12 -6 3 -3 -7 1 -19 7 -28 11 -12
10 -13 -4 -8 -14 5 -16 -5 -16 -96 0 -75 3 -99 12 -94 8 5 9 2 5 -9 -3 -9 -2
-19 3 -22 6 -4 10 1 10 10 0 15 2 15 17 -1 13 -13 14 -19 5 -22 -6 -2 -12 -15
-12 -28 0 -17 6 -24 20 -24 11 0 20 -4 20 -10 0 -5 -16 -10 -35 -10 -37 0 -45
15 -22 39 10 11 9 13 -1 7 -7 -5 -13 0 -14 11 -1 10 -4 -11 -7 -47 -5 -44 -2
-72 6 -87 7 -12 13 -29 13 -38 0 -8 5 -15 10 -15 6 0 10 -5 10 -11 0 -5 -4 -8
-9 -5 -12 7 -21 -18 -21 -55 0 -18 -4 -28 -10 -24 -5 3 -10 0 -10 -9 0 -8 5
-16 12 -18 8 -3 5 -14 -10 -35 -12 -17 -22 -35 -22 -40 0 -4 5 -1 10 7 8 12
10 9 10 -12 0 -25 3 -27 40 -25 22 1 40 5 40 9 0 4 6 5 13 2 7 -2 13 4 14 16
2 26 -9 26 -25 0 -7 -12 -18 -18 -24 -14 -7 5 -6 11 6 19 12 10 14 18 7 36
l-9 24 -10 -25 c-7 -17 -11 -20 -11 -8 -1 10 9 26 20 37 19 17 23 18 36 5 8
-8 12 -21 9 -29 -3 -9 0 -12 9 -8 8 3 12 9 10 14 -3 4 8 7 25 6 16 -1 28 -6
26 -12 -2 -5 -9 -9 -16 -7 -11 3 -11 0 0 -12 9 -12 10 -19 1 -30 -9 -11 -8
-15 5 -20 26 -10 264 -7 284 4 12 6 21 7 25 1 3 -6 377 -10 986 -11 l980 0 -1
811 c-1 446 -4 817 -7 825 -3 8 -11 14 -18 14 -7 0 -15 16 -17 36 -3 29 -2 33
7 20 17 -22 24 -20 18 7 -4 18 -3 19 6 7 8 -11 11 0 11 45 0 42 -3 56 -10 45
-9 -13 -10 -13 -10 1 0 8 5 20 12 27 9 9 8 15 -7 25 -14 11 -15 16 -5 22 9 5
11 4 6 -3 -4 -7 -2 -12 3 -12 12 0 13 16 2 44 -7 19 -8 19 -14 -3z m-107 -102
c0 -5 -4 -9 -8 -9 -5 0 -9 7 -9 15 0 8 4 12 9 9 4 -3 8 -9 8 -15z m84 -2 c16
-12 14 -13 -18 -9 -20 2 -36 8 -36 13 0 13 34 11 54 -4z m-47 -42 c0 -8 -4
-15 -9 -15 -10 0 -11 14 -1 23 9 10 10 9 10 -8z m-122 -45 c-3 -5 -12 -10 -18
-10 -7 0 -6 4 3 10 19 12 23 12 15 0z m155 -40 c-6 -11 -17 -20 -25 -20 -9 0
-12 -6 -8 -17 4 -10 2 -14 -4 -10 -10 6 -11 -12 -3 -33 1 -3 2 -9 1 -13 -1 -5
3 -6 8 -3 5 4 12 2 16 -3 3 -6 -8 -17 -24 -26 -35 -18 -41 -18 -41 -4 0 5 5 7
12 3 7 -5 8 -3 4 5 -5 7 -14 10 -22 7 -8 -3 -11 0 -7 10 3 7 1 14 -5 14 -17 0
-23 -30 -7 -36 8 -4 15 -11 15 -17 0 -6 -10 -2 -22 10 -17 17 -19 25 -10 36 7
8 9 17 5 21 -4 4 4 3 19 -3 23 -9 28 -7 34 12 4 12 2 23 -5 25 -6 2 -11 11
-11 20 1 14 3 14 12 -3 11 -19 12 -18 24 10 7 17 13 24 14 18 0 -7 4 -13 10
-13 5 0 7 7 4 15 -4 10 0 15 10 15 14 0 15 -4 6 -20z m45 -51 c10 -14 1 -21
-19 -13 -9 3 -13 10 -10 15 7 12 21 11 29 -2z m-47 -15 c12 -4 22 -11 22 -16
0 -10 -39 -1 -54 13 -12 11 -1 11 32 3z m46 -48 c-3 -9 -10 -16 -15 -16 -14 0
-11 28 4 33 16 6 19 3 11 -17z m-588 -53 c-3 -20 -16 -28 -16 -9 0 9 -4 14
-10 11 -5 -3 -10 -2 -10 4 0 5 8 9 19 8 10 0 18 -7 17 -14z m567 -3 c-10 -11
-27 -20 -38 -20 -16 0 -17 -2 -5 -10 13 -8 12 -10 -2 -10 -10 0 -18 -5 -18
-11 0 -6 9 -8 23 -4 20 5 20 5 4 -6 -11 -6 -23 -7 -28 -2 -14 14 2 53 21 53
10 0 23 7 30 15 7 8 16 15 21 15 5 0 1 -9 -8 -20z m27 -14 c0 -3 -4 -8 -10
-11 -5 -3 -10 -1 -10 4 0 6 5 11 10 11 6 0 10 -2 10 -4z m-640 -50 c0 -3 -4
-8 -10 -11 -5 -3 -10 -1 -10 4 0 6 5 11 10 11 6 0 10 -2 10 -4z m467 -18 c-3
-8 -6 -5 -6 6 -1 11 2 17 5 13 3 -3 4 -12 1 -19z m111 -23 c-3 -3 -9 2 -12 12
-6 14 -5 15 5 6 7 -7 10 -15 7 -18z m-474 6 c3 -5 -1 -14 -9 -21 -8 -7 -15
-19 -15 -26 0 -17 -17 -18 -23 -1 -4 7 -6 8 -6 1 -1 -6 6 -17 14 -24 12 -10
16 -9 21 3 3 9 13 13 25 10 19 -5 19 -6 2 -20 -10 -8 -13 -12 -8 -10 6 3 15
-1 22 -8 10 -10 9 -14 -3 -19 -8 -3 -13 -2 -10 3 7 10 -22 24 -34 16 -5 -3
-20 -1 -35 5 -22 8 -25 13 -16 24 14 17 1 28 -18 17 -10 -7 -10 -13 -2 -30 8
-14 8 -21 1 -21 -5 0 -10 5 -10 11 0 5 -4 7 -10 4 -12 -7 -14 18 -2 29 4 4 7
12 7 17 0 5 3 8 7 7 4 -2 14 6 23 17 14 19 15 19 8 1 -5 -15 -3 -17 8 -10 8 4
21 9 29 9 8 0 14 6 13 13 -3 14 13 17 21 3z m436 -1 c0 -5 -5 -10 -11 -10 -5
0 -7 5 -4 10 3 6 8 10 11 10 2 0 4 -4 4 -10z m-296 -19 c3 -4 -5 -13 -19 -19
-19 -9 -26 -8 -37 5 -11 14 -10 15 10 9 13 -5 22 -3 22 3 0 13 17 15 24 2z
m42 -36 c-5 15 -4 17 5 8 21 -21 -1 -36 -24 -16 -20 17 -20 17 -13 -2 5 -15 4
-17 -5 -8 -21 21 1 36 24 16 20 -17 20 -17 13 2z m-121 -16 c-6 -30 -13 -35
-21 -14 -4 10 -1 21 7 26 19 12 18 12 14 -12z m195 -9 c8 -5 10 -10 4 -10 -7
0 -22 9 -35 21 -19 16 -20 18 -4 10 11 -6 27 -15 35 -21z m-394 1 c0 -10 -5
-17 -12 -14 -10 4 -11 -10 -4 -57 1 -9 5 -6 8 8 7 22 8 22 27 7 11 -9 15 -14
8 -11 -6 4 -14 -3 -18 -14 -7 -23 -13 -24 -39 -5 -10 7 -15 18 -11 24 3 6 1
11 -6 11 -6 0 -9 -8 -6 -20 6 -24 -11 -27 -20 -4 -3 9 0 20 7 24 8 5 9 13 4
21 -6 11 -5 12 8 2 8 -7 18 -10 21 -6 4 3 -1 12 -11 20 -9 8 -12 12 -6 9 7 -3
17 1 24 9 17 20 26 19 26 -4z m244 9 c8 -5 12 -11 9 -14 -3 -3 -14 1 -25 9
-21 16 -8 20 16 5z m110 -14 c0 -2 -7 -7 -16 -10 -8 -3 -12 -2 -9 4 6 10 25
14 25 6z m-63 -12 c-3 -3 -12 -4 -19 -1 -8 3 -5 6 6 6 11 1 17 -2 13 -5z
m-203 -39 c-17 -12 -14 -13 28 -9 26 3 56 1 65 -5 14 -8 10 -9 -16 -4 -31 5
-34 4 -27 -12 6 -18 6 -18 -12 -2 -23 21 -33 22 -26 2 5 -11 0 -15 -17 -14
-14 0 -18 3 -10 6 11 4 8 10 -10 25 -13 11 -18 17 -11 13 6 -3 19 1 28 10 9 9
19 13 22 10 3 -3 -3 -12 -14 -20z m175 21 c-2 -2 -14 -9 -26 -15 -18 -9 -22
-9 -18 2 3 7 15 13 26 14 12 1 20 1 18 -1z m106 -16 c3 -5 1 -10 -4 -10 -6 0
-11 5 -11 10 0 6 2 10 4 10 3 0 8 -4 11 -10z m-1035 -22 c0 -6 -6 -5 -15 2 -8
7 -15 14 -15 16 0 2 7 1 15 -2 8 -4 15 -11 15 -16z m1215 12 c-3 -5 -16 -10
-28 -9 -20 1 -20 2 3 9 14 4 26 8 28 9 2 1 0 -3 -3 -9z m-987 -12 c-2 -6 -11
-13 -19 -16 -11 -3 -11 -2 1 7 13 9 13 11 -2 11 -9 0 -19 -6 -21 -12 -3 -8 -6
-6 -6 5 -1 12 7 17 25 17 15 0 24 -5 22 -12z m-164 -43 c-4 -8 -8 -15 -10 -15
-2 0 -4 7 -4 15 0 8 4 15 10 15 5 0 7 -7 4 -15z m562 2 c4 -3 -4 -4 -16 -2
-30 6 -40 16 -12 12 12 -2 24 -6 28 -10z m-506 -37 c0 -5 -2 -10 -4 -10 -3 0
-8 5 -11 10 -3 6 -1 10 4 10 6 0 11 -4 11 -10z m443 -14 c3 -7 1 -19 -4 -27
-6 -10 -9 -11 -10 -1 -3 22 -4 27 -12 39 -5 9 -3 11 7 7 8 -3 17 -11 19 -18z
m77 4 c8 -16 8 -20 -4 -20 -9 0 -14 8 -13 20 1 11 2 20 4 20 1 0 7 -9 13 -20z
m-545 0 c3 -5 2 -10 -4 -10 -5 0 -13 5 -16 10 -3 6 -2 10 4 10 5 0 13 -4 16
-10z m5 -30 c0 -5 -4 -10 -10 -10 -5 0 -10 5 -10 10 0 6 5 10 10 10 6 0 10 -4
10 -10z m-27 -21 c12 0 17 -3 10 -5 -7 -3 -10 -13 -7 -22 5 -15 4 -15 -9 1 -8
9 -19 17 -25 17 -6 0 -14 5 -18 12 -5 8 -2 9 10 5 10 -4 27 -7 39 -8z m97 1
c0 -5 -5 -10 -11 -10 -5 0 -7 5 -4 10 3 6 8 10 11 10 2 0 4 -4 4 -10z m275
-20 c-3 -5 -11 -10 -16 -10 -6 0 -7 5 -4 10 3 6 11 10 16 10 6 0 7 -4 4 -10z
m-460 -28 c-3 -3 -11 0 -18 7 -9 10 -8 11 6 5 10 -3 15 -9 12 -12z m480 -10
c-8 -8 -25 10 -19 20 4 6 9 5 15 -3 4 -7 6 -15 4 -17z m-38 4 c4 -5 -4 -6 -19
-2 -17 4 -28 2 -28 -4 0 -5 -7 -10 -15 -10 -8 0 -15 5 -15 11 0 5 5 7 10 4 6
-3 10 -1 10 5 0 12 45 9 57 -4z m-387 -32 c0 -2 -7 -4 -15 -4 -8 0 -15 4 -15
10 0 5 7 7 15 4 8 -4 15 -8 15 -10z m322 1 c2 2 4 -4 5 -15 1 -13 -4 -18 -18
-17 -12 1 -15 5 -9 11 6 6 3 14 -8 23 -15 13 -15 13 4 4 12 -6 23 -8 26 -6z
m60 -8 c6 -31 -9 -70 -23 -62 -8 5 -8 10 0 18 6 6 11 18 10 27 0 10 -2 11 -6
3 -8 -21 -18 -15 -19 12 -2 33 32 35 38 2z m-111 -18 c6 -13 7 -19 1 -15 -6 3
-12 3 -15 -1 -2 -5 -2 -2 0 6 2 8 -2 18 -9 23 -10 6 -10 8 -1 8 7 0 17 -10 24
-21z m139 5 c0 -8 -4 -12 -10 -9 -5 3 -10 10 -10 16 0 5 5 9 10 9 6 0 10 -7
10 -16z m-197 -11 c-5 -12 -2 -15 10 -10 14 5 15 3 5 -13 -9 -14 -14 -16 -20
-7 -11 17 -10 47 2 47 5 0 6 -8 3 -17z m-358 -63 c2 -12 0 -18 -6 -15 -5 4 -7
10 -4 15 3 5 1 11 -5 15 -5 3 -10 14 -10 23 1 15 2 15 11 -1 6 -9 12 -26 14
-37z m143 36 c-7 -8 -15 -12 -17 -11 -5 6 10 25 20 25 5 0 4 -6 -3 -14z m459
-18 c-3 -8 -6 -5 -6 6 -1 11 2 17 5 13 3 -3 4 -12 1 -19z m-697 2 c0 -5 -4
-10 -10 -10 -5 0 -10 5 -10 10 0 6 5 10 10 10 6 0 10 -4 10 -10z m432 -25 c-6
-34 -12 -32 -12 6 0 16 4 28 9 25 4 -3 6 -17 3 -31z m148 -6 c0 -5 -4 -9 -8
-9 -5 0 -9 7 -9 15 0 8 4 12 9 9 4 -3 8 -9 8 -15z m-455 2 c3 -5 1 -12 -5 -16
-5 -3 -10 1 -10 9 0 18 6 21 15 7z m39 -6 c-4 -8 -11 -15 -16 -15 -6 0 -5 6 2
15 7 8 14 15 16 15 2 0 1 -7 -2 -15z m315 6 c9 -6 10 -11 2 -15 -13 -8 -31 1
-31 15 0 11 11 11 29 0z m171 3 c0 -2 -7 -10 -16 -18 -18 -18 -34 -21 -34 -5
0 5 4 8 9 4 5 -3 12 -1 15 4 4 5 -2 12 -11 14 -10 3 -6 4 10 4 15 -1 27 -2 27
-3z m-633 -60 c-3 -3 -12 -4 -19 -1 -8 3 -5 6 6 6 11 1 17 -2 13 -5z m598 -18
c0 -13 -3 -27 -7 -31 -5 -6 -5 40 1 53 4 8 7 -1 6 -22z m-722 -23 c-3 -7 -6
-13 -8 -13 -2 0 -5 6 -8 13 -3 8 1 14 8 14 7 0 11 -6 8 -14z m397 -3 c0 -5 -5
-10 -11 -10 -5 0 -7 5 -4 10 3 6 8 10 11 10 2 0 4 -4 4 -10z m87 4 c-8 -8 -67
-11 -67 -4 0 5 16 8 36 8 19 0 34 -2 31 -4z m-297 -28 c0 -3 -4 -8 -10 -11 -5
-3 -10 -1 -10 4 0 6 5 11 10 11 6 0 10 -2 10 -4z m460 -30 c0 -3 -4 -8 -10
-11 -5 -3 -10 -1 -10 4 0 6 5 11 10 11 6 0 10 -2 10 -4z m-554 -53 c-3 -4 -6
-1 -6 5 0 7 -8 12 -17 12 -15 0 -16 2 -3 10 10 6 17 4 23 -6 5 -9 6 -18 3 -21z
m188 15 c-14 -6 -28 -7 -39 -1 -13 8 -8 10 22 11 33 0 35 -1 17 -10z m116 8
c0 -3 -4 -8 -10 -11 -5 -3 -10 -1 -10 4 0 6 5 11 10 11 6 0 10 -2 10 -4z
m-375 -26 c-3 -5 -1 -10 5 -10 6 0 8 -5 4 -12 -6 -9 -9 -9 -11 -1 -3 7 -12 10
-21 7 -14 -5 -13 -2 2 10 23 18 30 20 21 6z m45 0 c8 -5 11 -10 5 -10 -5 0
-17 5 -25 10 -8 5 -10 10 -5 10 6 0 17 -5 25 -10z m145 0 c3 -5 1 -10 -4 -10
-6 0 -11 5 -11 10 0 6 2 10 4 10 3 0 8 -4 11 -10z m34 -54 c-9 -8 -10 -8 -6 0
4 7 1 14 -7 17 -9 4 -12 14 -9 27 5 20 6 19 20 -6 10 -21 11 -30 2 -38z m-184
24 c3 -5 1 -10 -4 -10 -6 0 -11 5 -11 10 0 6 2 10 4 10 3 0 8 -4 11 -10z
m-246 -69 c0 -15 -3 -20 -6 -11 -3 8 -10 23 -15 32 -6 14 -5 16 7 12 8 -4 15
-18 14 -33z m-549 14 c0 -8 -4 -15 -10 -15 -5 0 -7 7 -4 15 4 8 8 15 10 15 2
0 4 -7 4 -15z m-6 -49 c-3 -9 -10 -16 -15 -16 -5 0 -4 9 3 20 14 22 21 20 12
-4z m452 -43 c-2 -21 -8 -38 -12 -38 -5 0 -10 17 -12 38 -2 28 1 37 12 37 11
0 14 -9 12 -37z m-390 -41 c-11 -10 -14 3 -8 33 l7 30 3 -28 c2 -16 1 -31 -2
-35z m451 16 c-3 -8 -6 -5 -6 6 -1 11 2 17 5 13 3 -3 4 -12 1 -19z m118 2 c-3
-5 -12 -10 -18 -10 -7 0 -6 4 3 10 19 12 23 12 15 0z m-555 -44 c0 -8 7 -16
15 -20 9 -3 15 0 15 10 0 9 -5 12 -12 8 -7 -4 -8 -3 -4 5 13 20 36 -8 34 -41
-1 -16 -6 -32 -10 -34 -14 -9 -8 -24 10 -24 14 0 14 -2 3 -9 -13 -9 -23 -46
-22 -81 1 -8 1 -27 1 -41 0 -19 5 -26 16 -25 9 0 19 -5 22 -13 3 -9 0 -11 -9
-6 -11 6 -12 5 -1 -6 17 -18 15 -49 -3 -49 -20 0 -19 -17 2 -29 21 -11 11 -26
-12 -18 -8 4 -15 16 -15 27 0 12 -4 18 -10 15 -5 -3 -10 -1 -10 4 0 6 5 11 10
11 6 0 10 10 9 23 0 12 -3 17 -5 10 -3 -7 -12 -9 -21 -6 -10 4 -14 2 -9 -5 3
-6 2 -13 -4 -17 -5 -3 -10 -2 -10 4 0 6 -6 8 -13 5 -10 -3 -14 5 -14 30 0 19
4 33 9 30 5 -3 20 -7 34 -9 19 -2 24 2 24 21 0 13 -5 24 -11 24 -5 0 -7 5 -3
12 5 8 2 9 -11 4 -14 -5 -15 -4 -7 7 6 7 9 28 7 47 -3 19 2 47 10 64 8 16 13
32 10 34 -3 3 -5 0 -5 -7 0 -7 -4 -10 -9 -7 -5 4 -11 1 -13 -5 -2 -7 -9 -5
-18 5 -7 10 -9 16 -4 15 23 -4 26 2 8 16 -16 13 -17 16 -4 25 21 14 30 12 30
-4z m462 -18 c-15 -15 -24 -6 -16 16 5 12 10 14 17 7 8 -8 8 -14 -1 -23z
m-116 5 c0 -11 6 -18 19 -18 15 0 21 -8 23 -32 2 -20 -1 -33 -8 -33 -6 0 -8
-4 -5 -10 3 -5 -1 -10 -9 -10 -9 0 -16 -5 -16 -11 0 -5 -4 -7 -10 -4 -15 9
-12 25 4 25 8 0 15 14 18 34 2 19 0 32 -5 29 -10 -6 -27 15 -27 35 0 6 4 12 9
12 5 0 8 -8 7 -17z m-241 -93 c-3 -5 -14 -10 -23 -9 -14 0 -13 2 3 9 27 11 27
11 20 0z m-15 -40 c0 -5 -2 -10 -4 -10 -3 0 -8 5 -11 10 -3 6 -1 10 4 10 6 0
11 -4 11 -10z m90 0 c10 -6 11 -10 3 -10 -7 0 -13 -7 -13 -15 0 -8 -5 -15 -10
-15 -7 0 -7 6 0 19 7 14 6 21 -3 24 -6 3 -7 6 -2 6 6 0 17 -4 25 -9z m-90 -30
c0 -5 -2 -10 -4 -10 -3 0 -8 5 -11 10 -3 6 -1 10 4 10 6 0 11 -4 11 -10z m20
-20 c0 -5 -5 -10 -11 -10 -5 0 -7 5 -4 10 3 6 8 10 11 10 2 0 4 -4 4 -10z m40
-70 c-6 -11 -10 -23 -9 -27 3 -19 -2 -33 -11 -33 -5 0 -10 17 -10 38 0 31 4
38 20 39 17 2 18 -1 10 -17z m110 -1 c0 -6 -4 -7 -10 -4 -5 3 -10 11 -10 16 0
6 5 7 10 4 6 -3 10 -11 10 -16z m90 1 c0 -5 -2 -10 -4 -10 -3 0 -8 5 -11 10
-3 6 -1 10 4 10 6 0 11 -4 11 -10z m-170 -110 c0 -11 -6 -20 -14 -20 -9 0 -12
7 -9 20 3 11 9 20 14 20 5 0 9 -9 9 -20z"/>
<path d="M3350 1905 c-7 -9 -8 -15 -2 -15 5 0 12 7 16 15 3 8 4 15 2 15 -2 0
-9 -7 -16 -15z"/>
<path d="M3303 1879 c-9 -9 -8 -15 2 -25 18 -19 31 -18 15 1 -6 8 -9 19 -5 25
8 13 2 13 -12 -1z"/>
<path d="M3353 1864 c4 -4 2 -13 -4 -21 -15 -17 -1 -17 16 1 12 12 12 15 -2
21 -10 3 -14 3 -10 -1z"/>
<path d="M1557 1836 c-7 -18 24 -31 35 -14 12 20 9 28 -11 28 -10 0 -21 -6
-24 -14z"/>
<path d="M2298 1832 c-4 -12 -2 -20 3 -16 5 3 9 0 9 -7 0 -7 2 -10 5 -7 3 3 2
16 -3 28 l-9 24 -5 -22z"/>
<path d="M3256 1835 c-3 -8 -1 -15 4 -15 6 0 10 7 10 15 0 8 -2 15 -4 15 -2 0
-6 -7 -10 -15z"/>
<path d="M3380 1830 c0 -5 5 -10 11 -10 5 0 7 5 4 10 -3 6 -8 10 -11 10 -2 0
-4 -4 -4 -10z"/>
<path d="M890 1664 c0 -127 1 -135 17 -123 11 10 14 10 9 2 -4 -7 -2 -13 3
-13 6 0 11 -9 11 -20 0 -11 5 -20 10 -20 6 0 10 18 10 40 0 25 -5 40 -12 40
-10 0 -10 2 0 9 11 7 11 9 -2 14 -8 3 -17 1 -20 -6 -3 -8 -5 -8 -5 1 -1 7 5
20 13 28 13 12 15 12 19 -4 3 -9 5 -2 6 17 1 30 -1 32 -16 20 -17 -13 -17 -13
0 7 24 29 23 48 -3 34 -11 -6 -20 -7 -21 -3 0 4 -2 16 -4 26 -2 11 -1 16 2 13
4 -3 15 8 25 24 22 38 24 57 3 40 -10 -9 -15 -9 -15 -1 0 6 -7 11 -15 11 -13
0 -15 -22 -15 -136z"/>
<path d="M3020 1786 c0 -7 -10 -20 -22 -29 -21 -14 -21 -15 -3 -14 39 4 77 57
40 57 -8 0 -15 -6 -15 -14z"/>
<path d="M1580 1755 c0 -8 2 -15 4 -15 2 0 6 7 10 15 3 8 1 15 -4 15 -6 0 -10
-7 -10 -15z"/>
<path d="M2615 1759 c-4 -6 -5 -12 -2 -15 2 -3 7 2 10 11 7 17 1 20 -8 4z"/>
<path d="M932 1736 c-15 -33 -11 -44 7 -22 7 8 11 23 9 32 -2 14 -6 11 -16
-10z"/>
<path d="M2346 1743 c-6 -14 -5 -15 5 -6 7 7 10 15 7 18 -3 3 -9 -2 -12 -12z"/>
<path d="M2576 1745 c-3 -8 -1 -15 4 -15 6 0 10 7 10 15 0 8 -2 15 -4 15 -2 0
-6 -7 -10 -15z"/>
<path d="M2935 1740 c-3 -6 1 -7 9 -4 18 7 21 14 7 14 -6 0 -13 -4 -16 -10z"/>
<path d="M3038 1743 c7 -3 16 -2 19 1 4 3 -2 6 -13 5 -11 0 -14 -3 -6 -6z"/>
<path d="M541 1714 c0 -11 3 -14 6 -6 3 7 2 16 -1 19 -3 4 -6 -2 -5 -13z"/>
<path d="M3003 1716 c-32 -15 -29 -21 16 -23 27 -2 41 2 45 13 3 8 11 12 17 8
8 -5 9 -3 5 5 -6 9 -12 9 -25 -3 -22 -20 -37 -21 -21 -1 15 18 -2 19 -37 1z"/>
<path d="M2360 1702 c0 -5 7 -9 15 -9 8 0 15 4 15 9 0 4 -7 8 -15 8 -8 0 -15
-4 -15 -8z"/>
<path d="M1200 1673 c0 -4 5 -15 10 -23 8 -13 10 -13 10 2 0 9 -4 20 -10 23
-5 3 -10 3 -10 -2z"/>
<path d="M3560 1669 c0 -5 5 -7 10 -4 6 3 10 8 10 11 0 2 -4 4 -10 4 -5 0 -10
-5 -10 -11z"/>
<path d="M542 1626 c-1 -22 4 -36 14 -40 11 -4 12 -2 5 13 -7 12 -6 22 1 29 9
9 9 12 -1 12 -7 0 -9 5 -6 10 3 6 2 10 -3 10 -5 0 -9 -15 -10 -34z"/>
<path d="M2265 1650 c3 -5 8 -10 11 -10 2 0 4 5 4 10 0 6 -5 10 -11 10 -5 0
-7 -4 -4 -10z"/>
<path d="M1456 1600 c-25 -16 -26 -19 -9 -17 11 0 26 9 32 19 13 21 14 21 -23
-2z"/>
<path d="M2560 1585 c0 -8 -6 -15 -14 -15 -25 0 -25 -26 0 -28 20 -1 24 3 24
28 0 17 -2 30 -5 30 -3 0 -5 -7 -5 -15z"/>
<path d="M2676 1577 c3 -10 9 -15 12 -12 3 3 0 11 -7 18 -10 9 -11 8 -5 -6z"/>
<path d="M2605 1548 c0 -18 7 -38 15 -44 15 -13 43 -7 35 7 -3 4 -12 6 -20 3
-10 -4 -12 0 -8 16 4 16 8 18 14 8 5 -7 9 -8 9 -2 0 10 -31 44 -41 44 -2 0 -4
-15 -4 -32z"/>
<path d="M1759 1553 c6 -10 18 -27 26 -38 14 -17 17 -18 25 -5 5 8 10 20 10
25 0 6 5 3 10 -5 5 -8 10 -10 10 -5 -1 14 -23 40 -38 43 -10 2 -11 -4 -7 -19
5 -16 3 -20 -6 -17 -8 3 -13 13 -13 22 1 9 -5 16 -12 16 -11 0 -12 -4 -5 -17z"/>
<path d="M1375 1530 c-8 -13 5 -13 25 0 13 8 13 10 -2 10 -9 0 -20 -4 -23 -10z"/>
<path d="M2543 1515 c-8 -22 6 -33 17 -15 13 20 12 30 0 30 -6 0 -13 -7 -17
-15z"/>
<path d="M1713 1464 c-3 -8 -12 -13 -19 -10 -8 3 -14 1 -14 -4 0 -6 6 -10 13
-10 9 0 8 -3 -2 -9 -7 -5 -11 -15 -9 -22 4 -9 10 -5 18 14 15 32 30 35 30 7 0
-11 4 -20 9 -20 10 0 9 19 -2 38 -5 6 -5 17 -2 22 3 6 1 10 -5 10 -6 0 -13 -7
-17 -16z"/>
<path d="M2558 1474 c-3 -3 -19 -6 -34 -8 -36 -4 -49 -46 -15 -46 12 0 21 -6
21 -14 0 -21 17 -28 24 -10 3 8 2 12 -4 9 -6 -3 -9 2 -7 12 1 10 6 19 11 20 5
1 13 7 17 15 6 8 9 9 9 1 0 -6 9 -9 20 -6 24 6 26 -6 4 -33 -13 -16 -15 -16
-10 -1 3 11 0 17 -10 17 -11 0 -13 -6 -9 -19 3 -11 -1 -25 -10 -34 -15 -15
-11 -47 6 -47 4 0 6 6 3 14 -3 9 5 21 20 31 14 10 26 24 26 31 0 8 5 13 11 12
6 -2 13 4 14 14 3 14 -14 25 -47 32 -3 0 -10 4 -14 9 -9 8 -19 9 -26 1z"/>
<path d="M933 1440 c1 -11 5 -20 9 -20 4 0 8 9 8 20 0 11 -4 20 -9 20 -6 0 -9
-9 -8 -20z"/>
<path d="M153 1428 c-2 -18 0 -20 7 -8 12 18 13 30 2 30 -4 0 -9 -10 -9 -22z"/>
<path d="M1805 1429 c-4 -6 -5 -12 -2 -15 2 -3 7 2 10 11 7 17 1 20 -8 4z"/>
<path d="M1650 1415 c0 -8 4 -15 10 -15 5 0 7 7 4 15 -4 8 -8 15 -10 15 -2 0
-4 -7 -4 -15z"/>
<path d="M170 1410 c0 -5 7 -7 15 -4 8 4 15 8 15 10 0 2 -7 4 -15 4 -8 0 -15
-4 -15 -10z"/>
<path d="M1595 1390 c-3 -5 -1 -10 4 -10 6 0 11 5 11 10 0 6 -2 10 -4 10 -3 0
-8 -4 -11 -10z"/>
<path d="M1680 1369 c0 -5 5 -7 10 -4 6 3 10 8 10 11 0 2 -4 4 -10 4 -5 0 -10
-5 -10 -11z"/>
<path d="M1007 1359 c-11 -6 -33 -8 -50 -5 -18 3 -27 3 -21 -2 17 -11 36 -51
29 -62 -3 -6 -1 -10 6 -10 10 0 10 -3 1 -12 -9 -9 -15 -8 -28 8 -13 16 -15 16
-10 2 3 -10 1 -20 -4 -23 -6 -4 -10 5 -10 19 0 14 -5 26 -12 26 -6 0 -8 -3 -5
-7 4 -3 2 -13 -5 -20 -9 -11 -9 -16 1 -23 8 -4 10 -13 6 -20 -4 -7 5 -4 19 5
20 14 30 15 39 6 8 -8 7 -11 -7 -11 -26 0 -44 -22 -36 -45 11 -31 0 -49 -16
-28 -12 17 -13 17 -14 -4 0 -22 10 -27 47 -26 6 0 9 -6 6 -13 -6 -17 -33 -19
-33 -2 0 15 -13 2 -16 -16 -1 -10 12 -14 48 -15 49 -1 50 0 44 27 -3 15 -3 22
0 15 3 -7 12 -9 20 -6 12 4 12 7 -3 18 -10 7 -22 11 -28 7 -8 -4 2 10 34 48 2
3 1 -3 -2 -13 -4 -11 -1 -25 8 -33 8 -9 15 -25 15 -37 0 -16 -3 -18 -9 -8 -5
7 -11 9 -14 4 -7 -11 7 -35 19 -34 4 0 7 -16 5 -37 -2 -32 2 -40 23 -51 26
-14 76 -8 76 9 0 6 -5 10 -11 10 -11 0 -39 25 -39 35 0 3 5 3 12 -1 8 -5 9 -2
5 10 -4 9 0 33 8 52 16 38 14 41 -10 18 -9 -9 -18 -14 -21 -11 -3 3 3 13 14
23 11 9 18 23 15 30 -2 7 8 19 23 27 19 10 23 16 14 22 -7 4 -16 2 -21 -6 -7
-11 -9 -10 -9 4 0 9 -5 17 -11 17 -5 0 -8 -4 -5 -9 4 -5 -3 -7 -15 -4 -13 4
-17 9 -10 16 5 5 8 15 7 21 -2 6 -1 8 1 4 3 -5 9 -8 14 -8 6 0 8 4 5 9 -4 5 4
7 16 4 17 -3 19 -2 9 5 -10 7 -10 11 -1 17 8 5 6 11 -6 20 -17 12 -17 13 0 30
9 10 14 20 11 24 -10 9 -36 -31 -31 -46 5 -13 -17 -18 -59 -13 -29 3 -32 10
-12 24 9 7 17 19 17 27 -1 9 -8 5 -21 -10 -11 -13 -22 -21 -26 -17 -4 3 4 17
17 31 26 27 25 30 -3 14z m42 -100 c-16 -10 -23 -4 -14 10 3 6 11 8 17 5 6 -4
5 -9 -3 -15z m24 -208 c-5 -3 -13 -15 -18 -26 -8 -20 -8 -20 -13 0 -2 10 1 21
7 23 6 2 9 8 6 13 -4 5 1 6 10 2 9 -3 13 -9 8 -12z m-3 -57 c0 -8 -5 -12 -10
-9 -6 4 -8 11 -5 16 9 14 15 11 15 -7z"/>
<path d="M2278 1333 c4 -30 6 -34 12 -18 6 16 -3 55 -13 55 -2 0 -1 -17 1 -37z"/>
<path d="M1582 1335 c0 -16 2 -22 5 -12 2 9 2 23 0 30 -3 6 -5 -1 -5 -18z"/>
<path d="M1651 1327 c-1 -23 3 -36 9 -32 7 4 7 -2 1 -18 -6 -14 -7 -27 -4 -30
3 -3 -5 -3 -16 0 -16 4 -19 9 -11 18 5 6 7 15 3 18 -9 9 -24 9 -20 -1 1 -4 -8
-18 -20 -32 l-23 -24 -1 25 c-1 13 -1 27 -1 30 1 4 -7 5 -16 2 -25 -6 -27 -53
-2 -70 15 -11 19 -22 15 -48 -2 -19 -1 -35 3 -35 4 0 7 -16 8 -35 0 -20 5 -40
11 -46 6 -6 9 -2 9 13 -1 15 4 23 15 22 11 -1 15 7 14 27 -2 31 28 68 40 50 3
-6 -1 -11 -9 -11 -8 0 -18 -5 -22 -11 -4 -8 0 -9 15 -4 17 5 21 2 21 -14 0
-12 -7 -21 -15 -21 -9 0 -15 -9 -14 -22 0 -13 3 -17 6 -10 5 14 24 17 21 3 -2
-5 1 -9 6 -9 5 0 13 -6 18 -14 8 -10 9 -10 5 2 -2 8 -1 24 3 35 4 11 4 28 -1
37 -8 14 -4 16 18 15 27 -2 28 0 28 45 1 26 -3 44 -7 42 -4 -3 -8 0 -8 5 0 6
5 11 11 11 8 0 8 4 0 14 -9 11 -9 15 1 19 10 4 10 8 -2 16 -8 6 -10 11 -4 11
14 0 25 48 13 56 -5 3 -10 0 -10 -5 -1 -6 -2 -16 -3 -22 0 -6 -9 -16 -18 -23
-10 -7 -18 -21 -18 -30 0 -9 -4 -16 -10 -16 -9 0 -13 22 -13 72 0 10 -3 15 -7
13 -5 -3 -11 1 -13 7 -3 7 -6 -4 -6 -25z m-42 -175 c0 -11 -2 -12 -6 -4 -2 6
-9 10 -14 7 -5 -4 -6 1 -3 9 8 20 24 11 23 -12z"/>
<path d="M2135 1350 c-3 -5 -1 -10 4 -10 6 0 11 5 11 10 0 6 -2 10 -4 10 -3 0
-8 -4 -11 -10z"/>
<path d="M2485 1350 c-3 -6 1 -7 9 -4 18 7 21 14 7 14 -6 0 -13 -4 -16 -10z"/>
<path d="M155 1341 c-6 -11 13 -26 22 -17 4 3 1 6 -6 6 -7 0 -9 5 -6 10 3 6 4
10 1 10 -3 0 -7 -4 -11 -9z"/>
<path d="M1071 1334 c0 -11 3 -14 6 -6 3 7 2 16 -1 19 -3 4 -6 -2 -5 -13z"/>
<path d="M1859 1335 c6 -14 6 -27 -1 -39 -8 -14 -7 -17 3 -14 20 7 22 31 4 53
-16 20 -16 20 -6 0z"/>
<path d="M1900 1338 c0 -4 6 -8 13 -8 6 0 4 -5 -5 -11 -10 -5 -18 -14 -18 -19
0 -16 31 -39 45 -34 13 5 17 -1 14 -22 0 -4 5 -10 12 -15 19 -11 4 -22 -20
-14 -12 3 -21 13 -21 21 0 8 -3 14 -7 14 -21 -1 -35 -21 -37 -54 -1 -32 1 -35
19 -30 28 9 31 14 16 23 -9 6 -7 10 8 14 11 3 24 0 29 -7 12 -14 11 -46 0 -46
-5 0 -6 -5 -2 -11 4 -7 0 -9 -13 -5 -16 5 -19 1 -21 -27 -2 -24 0 -28 8 -17 9
13 11 13 20 0 5 -8 8 -21 5 -27 -2 -7 -1 -13 4 -13 18 0 20 43 3 57 -15 13
-15 13 5 4 12 -6 24 -16 26 -23 3 -8 6 -9 6 -2 1 6 -6 17 -14 24 -8 7 -15 17
-15 22 0 6 6 6 14 -1 12 -10 16 -8 22 11 4 13 7 27 6 32 -2 4 3 15 10 24 7 9
8 13 2 9 -7 -4 -14 5 -18 24 -3 17 -9 28 -13 26 -9 -6 -27 13 -31 33 -2 8 -10
22 -18 31 -8 9 -12 18 -9 21 3 2 -2 5 -10 5 -8 0 -15 -4 -15 -9z m40 -37 c8
-17 7 -20 -10 -18 -11 1 -20 2 -20 3 0 7 13 34 16 34 2 0 8 -9 14 -19z m60
-135 c0 -2 -7 -7 -16 -10 -8 -3 -12 -2 -9 4 6 10 25 14 25 6z"/>
<path d="M2026 1335 c-3 -8 -1 -15 4 -15 6 0 10 -5 10 -11 0 -5 -4 -7 -10 -4
-5 3 -10 1 -10 -4 0 -6 -9 -11 -19 -11 -11 0 -23 -5 -27 -11 -5 -8 3 -10 24
-7 25 4 29 2 21 -9 -8 -9 -8 -13 -1 -13 6 0 14 5 17 10 4 6 10 8 15 5 4 -3 11
2 14 11 4 11 2 15 -8 11 -11 -4 -14 2 -12 29 3 35 -7 46 -18 19z"/>
<path d="M2060 1341 c0 -5 7 -12 16 -15 14 -5 15 -4 4 9 -14 17 -20 19 -20 6z"/>
<path d="M2340 1340 c0 -5 5 -10 11 -10 5 0 7 5 4 10 -3 6 -8 10 -11 10 -2 0
-4 -4 -4 -10z"/>
<path d="M1326 1327 c3 -10 9 -15 12 -12 3 3 0 11 -7 18 -10 9 -11 8 -5 -6z"/>
<path d="M1950 1330 c0 -10 24 -30 36 -30 7 0 10 8 7 18 -4 16 -43 27 -43 12z"/>
<path d="M2161 1327 c-8 -10 -7 -14 2 -14 8 0 14 6 14 14 0 7 -1 13 -2 13 -2
0 -8 -6 -14 -13z"/>
<path d="M895 1320 c3 -5 8 -10 11 -10 2 0 4 5 4 10 0 6 -5 10 -11 10 -5 0 -7
-4 -4 -10z"/>
<path d="M1685 1320 c-3 -5 -1 -10 4 -10 6 0 11 5 11 10 0 6 -2 10 -4 10 -3 0
-8 -4 -11 -10z"/>
<path d="M2221 1314 c0 -11 3 -14 6 -6 3 7 2 16 -1 19 -3 4 -6 -2 -5 -13z"/>
<path d="M1580 1280 c0 -5 5 -10 10 -10 6 0 10 5 10 10 0 6 -4 10 -10 10 -5 0
-10 -4 -10 -10z"/>
<path d="M1141 1264 c0 -11 3 -14 6 -6 3 7 2 16 -1 19 -3 4 -6 -2 -5 -13z"/>
<path d="M1200 1249 c0 -19 9 -45 21 -59 11 -14 19 -20 16 -15 -15 34 -21 53
-24 75 -6 38 -13 37 -13 -1z"/>
<path d="M1280 1270 c0 -5 5 -10 11 -10 5 0 7 5 4 10 -3 6 -8 10 -11 10 -2 0
-4 -4 -4 -10z"/>
<path d="M1310 1260 c-6 -11 -15 -18 -19 -15 -5 2 -8 -3 -7 -13 0 -9 -6 -17
-14 -16 -10 1 -15 -8 -15 -27 0 -15 4 -25 9 -21 5 3 7 -5 3 -17 -3 -13 -1 -21
5 -19 5 2 9 7 8 12 -1 5 5 13 14 18 9 5 14 14 10 19 -3 6 -3 22 1 37 l8 27 7
-25 c7 -21 8 -18 9 18 1 47 -3 52 -19 22z"/>
<path d="M156 1255 c4 -8 10 -12 15 -9 11 6 2 24 -11 24 -5 0 -7 -7 -4 -15z"/>
<path d="M757 1233 c-7 -13 -7 -106 0 -99 6 6 12 106 7 106 -2 0 -5 -3 -7 -7z"/>
<path d="M1115 1230 c4 -6 11 -8 16 -5 14 9 11 15 -7 15 -8 0 -12 -5 -9 -10z"/>
<path d="M1807 1205 c-4 -8 -2 -17 3 -20 6 -4 10 3 10 14 0 25 -6 27 -13 6z"/>
<path d="M1530 1192 c0 -11 7 -25 15 -32 10 -9 15 -9 15 -1 0 6 -4 11 -10 11
-5 0 -7 6 -4 14 3 8 1 17 -5 21 -6 3 -11 -2 -11 -13z"/>
<path d="M1201 1174 c0 -11 3 -14 6 -6 3 7 2 16 -1 19 -3 4 -6 -2 -5 -13z"/>
<path d="M1195 1141 c-3 -5 -1 -12 5 -16 5 -3 10 1 10 9 0 18 -6 21 -15 7z"/>
<path d="M1310 1140 c0 -5 5 -10 11 -10 5 0 7 5 4 10 -3 6 -8 10 -11 10 -2 0
-4 -4 -4 -10z"/>
<path d="M1805 1120 c-3 -5 -1 -10 4 -10 6 0 11 5 11 10 0 6 -2 10 -4 10 -3 0
-8 -4 -11 -10z"/>
<path d="M1880 1120 c0 -5 -7 -10 -15 -10 -8 0 -15 -7 -15 -15 0 -27 35 -17
38 10 1 14 0 25 -3 25 -3 0 -5 -4 -5 -10z"/>
<path d="M1122 1090 c0 -14 2 -19 5 -12 2 6 2 18 0 25 -3 6 -5 1 -5 -13z"/>
<path d="M1180 1098 c0 -8 7 -15 15 -15 18 0 15 19 -3 25 -7 2 -12 -3 -12 -10z"/>
<path d="M1343 1035 c0 -8 4 -15 9 -15 4 0 8 7 8 15 0 8 -4 15 -8 15 -5 0 -9
-7 -9 -15z"/>
<path d="M1856 1042 c-6 -9 -1 -60 6 -68 3 -3 8 2 11 11 4 8 3 15 -2 15 -5 0
-7 11 -6 25 3 25 0 31 -9 17z"/>
<path d="M2040 1030 c6 -11 16 -20 23 -19 9 0 9 2 0 6 -7 2 -13 11 -13 19 0 8
-5 14 -10 14 -7 0 -7 -6 0 -20z"/>
<path d="M1199 1027 c6 -6 6 -20 0 -36 l-9 -26 20 25 c25 32 25 46 0 46 -12 0
-16 -4 -11 -9z"/>
<path d="M1405 1030 c3 -5 8 -10 11 -10 2 0 4 5 4 10 0 6 -5 10 -11 10 -5 0
-7 -4 -4 -10z"/>
<path d="M2 1000 c1 -16 5 -27 10 -24 11 7 10 54 -1 54 -5 0 -9 -13 -9 -30z"/>
<path d="M1550 1019 c0 -5 5 -7 10 -4 6 3 10 8 10 11 0 2 -4 4 -10 4 -5 0 -10
-5 -10 -11z"/>
<path d="M1670 1026 c0 -2 7 -6 15 -10 8 -3 15 -1 15 4 0 6 -7 10 -15 10 -8 0
-15 -2 -15 -4z"/>
<path d="M2090 1020 c0 -5 5 -10 10 -10 6 0 10 5 10 10 0 6 -4 10 -10 10 -5 0
-10 -4 -10 -10z"/>
<path d="M752 996 c1 -14 5 -23 9 -20 7 4 0 44 -7 44 -2 0 -3 -11 -2 -24z"/>
<path d="M1617 1000 c-3 -10 1 -25 9 -31 12 -10 14 -7 12 20 -3 35 -13 41 -21
11z"/>
<path d="M1340 989 c0 -5 5 -7 10 -4 6 3 10 8 10 11 0 2 -4 4 -10 4 -5 0 -10
-5 -10 -11z"/>
<path d="M1550 986 c0 -8 4 -17 9 -20 5 -4 7 3 4 14 -6 23 -13 26 -13 6z"/>
<path d="M563 935 c0 -27 2 -38 4 -22 2 15 2 37 0 50 -2 12 -4 0 -4 -28z"/>
<path d="M1080 952 c0 -4 14 -9 32 -10 18 -2 29 1 25 5 -11 10 -57 15 -57 5z"/>
<path d="M327 930 c-21 -25 -21 -27 2 -33 14 -3 18 2 19 24 1 34 1 34 -21 9z"/>
<path d="M1585 939 c4 -5 16 -9 27 -9 26 0 19 9 -11 15 -12 2 -19 0 -16 -6z"/>
<path d="M0 919 c0 -5 5 -7 10 -4 5 3 10 8 10 11 0 2 -4 4 -10 4 -5 0 -10 -5
-10 -11z"/>
<path d="M30 920 c0 -5 5 -10 11 -10 5 0 7 5 4 10 -3 6 -8 10 -11 10 -2 0 -4
-4 -4 -10z"/>
<path d="M1005 920 c3 -5 8 -10 11 -10 2 0 4 5 4 10 0 6 -5 10 -11 10 -5 0 -7
-4 -4 -10z"/>
<path d="M1582 896 c-6 -14 -16 -26 -22 -26 -6 0 -8 -5 -5 -10 4 -6 11 -8 16
-5 16 11 10 -7 -8 -22 -17 -14 -17 -14 0 -9 12 4 17 0 17 -14 0 -10 -4 -21
-10 -25 -18 -11 1 -32 30 -32 26 0 30 4 30 28 0 29 13 39 43 31 11 -3 16 -11
13 -21 -3 -9 -1 -23 4 -31 12 -18 12 -19 15 50 4 84 1 90 -51 90 -28 0 -43 -4
-39 -10 3 -5 4 -10 0 -10 -3 0 -9 9 -13 21 -8 20 -8 20 -20 -5z"/>
<path d="M752 858 c-1 -22 2 -46 8 -53 6 -7 10 -17 9 -21 -1 -5 3 -20 9 -34 8
-19 11 -21 11 -7 1 23 20 12 31 -17 5 -14 7 -4 6 33 -1 33 -6 56 -13 58 -9 3
-10 10 -3 24 9 16 7 19 -10 19 -18 0 -25 -10 -21 -32 0 -5 -3 -8 -9 -8 -5 0
-10 11 -10 25 0 14 4 25 9 25 17 0 19 26 2 27 -12 1 -17 -9 -19 -39z m58 -72
c0 -3 -4 -8 -10 -11 -5 -3 -10 -1 -10 4 0 6 5 11 10 11 6 0 10 -2 10 -4z"/>
<path d="M1787 880 c4 -16 8 -18 19 -9 8 6 14 17 14 23 0 6 -5 4 -10 -4 -6
-10 -10 -11 -10 -2 0 6 -4 12 -9 12 -5 0 -7 -9 -4 -20z"/>
<path d="M1757 871 c-4 -17 -3 -21 5 -13 5 5 8 16 6 23 -3 8 -7 3 -11 -10z"/>
<path d="M1833 868 c-3 -7 -1 -8 5 -4 8 5 12 -1 12 -18 0 -13 3 -33 6 -43 5
-17 5 -17 -6 1 -10 15 -14 16 -21 5 -8 -12 -10 -12 -18 0 -6 9 -10 1 -13 -28
-3 -31 0 -40 9 -37 16 7 17 -6 1 -22 -9 -9 -8 -12 5 -12 9 0 16 6 15 13 -2 7
7 11 22 11 40 -2 42 -3 34 -16 -4 -7 2 -4 14 6 27 24 27 25 2 19 -14 -4 -20 0
-20 11 0 11 -4 14 -12 9 -33 -20 -66 -10 -47 14 12 13 14 13 25 -2 17 -23 29
-2 29 52 0 32 -4 43 -17 47 -10 2 -21 -1 -25 -6z"/>
<path d="M1450 865 c0 -5 5 -17 10 -25 5 -8 10 -10 10 -5 0 6 -5 17 -10 25 -5
8 -10 11 -10 5z"/>
<path d="M1790 840 c0 -5 7 -10 15 -10 8 0 15 5 15 10 0 6 -7 10 -15 10 -8 0
-15 -4 -15 -10z"/>
<path d="M957 833 c-4 -3 -7 -22 -7 -41 0 -44 12 -35 16 13 2 37 2 39 -9 28z"/>
<path d="M1427 789 c-9 -5 -21 -8 -25 -5 -15 9 -9 -28 6 -44 14 -13 15 -12 9
9 -4 18 -1 24 14 28 10 3 19 9 19 14 0 11 -1 11 -23 -2z"/>
<path d="M312 760 c1 -18 7 -26 15 -23 16 6 37 43 26 44 -4 0 -16 2 -26 4 -13
3 -17 -3 -15 -25z"/>
<path d="M1030 775 c0 -8 -4 -15 -10 -15 -5 0 -10 -4 -10 -8 0 -5 7 -9 15 -9
8 0 13 2 10 5 -2 3 0 13 6 23 6 13 6 19 -1 19 -5 0 -10 -7 -10 -15z"/>
<path d="M1340 776 c0 -16 18 -31 27 -22 3 3 -2 12 -11 21 -14 14 -16 14 -16
1z"/>
<path d="M711 654 c0 -11 3 -14 6 -6 3 7 2 16 -1 19 -3 4 -6 -2 -5 -13z"/>
<path d="M821 644 c0 -11 3 -14 6 -6 3 7 2 16 -1 19 -3 4 -6 -2 -5 -13z"/>
<path d="M803 615 c0 -7 6 -11 14 -8 7 3 13 6 13 8 0 2 -6 5 -13 8 -8 3 -14
-1 -14 -8z"/>
<path d="M1125 598 c9 -30 25 -46 20 -22 -2 11 -4 21 -5 24 -1 3 -2 8 -1 13 0
4 -4 7 -10 7 -6 0 -8 -9 -4 -22z"/>
<path d="M550 470 c0 -29 2 -51 4 -49 8 8 10 88 3 95 -4 4 -7 -17 -7 -46z"/>
<path d="M815 500 c3 -5 8 -10 11 -10 2 0 4 5 4 10 0 6 -5 10 -11 10 -5 0 -7
-4 -4 -10z"/>
<path d="M970 473 c0 -4 5 -15 10 -23 8 -13 10 -13 10 2 0 9 -4 20 -10 23 -5
3 -10 3 -10 -2z"/>
<path d="M1400 460 c0 -7 -7 -10 -15 -6 -9 3 -15 0 -15 -8 0 -9 7 -12 18 -9
12 3 22 -3 29 -19 l12 -23 0 26 c1 15 -6 32 -14 39 -12 10 -15 10 -15 0z"/>
<path d="M650 429 c0 -5 5 -7 10 -4 6 3 10 8 10 11 0 2 -4 4 -10 4 -5 0 -10
-5 -10 -11z"/>
<path d="M260 396 c7 -7 14 -6 21 1 9 9 7 12 -9 10 -14 -1 -18 -5 -12 -11z"/>
<path d="M1507 384 c3 -7 9 -14 14 -14 14 0 10 17 -5 23 -10 4 -13 1 -9 -9z"/>
<path d="M1020 354 c0 -8 5 -12 10 -9 6 4 8 11 5 16 -9 14 -15 11 -15 -7z"/>
<path d="M855 349 c6 -9 3 -11 -9 -6 -20 8 -51 -17 -41 -33 10 -15 35 -12 35
5 0 8 5 15 10 15 6 0 9 -5 8 -12 -2 -6 5 -13 14 -16 13 -2 16 3 15 25 -2 18
-9 29 -21 31 -13 3 -16 0 -11 -9z"/>
<path d="M917 354 c-4 -4 -3 -12 1 -18 7 -11 8 -16 11 -36 0 -5 6 -10 11 -10
6 0 10 16 10 35 0 33 -16 46 -33 29z"/>
<path d="M770 310 c0 -5 5 -10 10 -10 6 0 10 5 10 10 0 6 -4 10 -10 10 -5 0
-10 -4 -10 -10z"/>
<path d="M976 305 c-3 -8 -1 -15 4 -15 6 0 10 7 10 15 0 8 -2 15 -4 15 -2 0
-6 -7 -10 -15z"/>
<path d="M1003 300 c1 -11 5 -20 9 -20 3 0 6 9 5 20 -1 11 -5 20 -9 20 -3 0
-6 -9 -5 -20z"/>
<path d="M984 255 c1 -27 20 -34 30 -10 3 8 -3 19 -13 25 -16 8 -19 6 -17 -15z"/>
<path d="M896 258 c-4 -9 -5 -22 -1 -27 3 -6 1 -20 -5 -31 -7 -13 -7 -20 0
-20 5 0 9 -3 9 -7 -3 -19 2 -27 10 -14 6 9 11 10 15 2 4 -6 2 -11 -4 -11 -6 0
-8 -5 -4 -11 5 -8 1 -8 -14 0 -25 13 -35 14 -28 2 3 -5 -1 -14 -9 -21 -10 -9
-15 -9 -15 -1 0 6 -4 11 -9 11 -5 0 -8 -8 -6 -17 1 -10 8 -17 14 -15 6 1 11
-2 11 -7 0 -5 3 -18 6 -28 5 -17 4 -16 -10 1 -9 11 -18 17 -21 14 -3 -2 6 -15
20 -28 14 -13 25 -29 25 -37 0 -9 13 -13 40 -13 39 0 40 1 34 27 -4 15 -7 60
-7 100 0 61 -3 73 -16 71 -12 -2 -18 8 -22 37 -4 29 -7 35 -13 23z m4 -178 c0
-5 -7 -10 -15 -10 -8 0 -15 5 -15 10 0 6 7 10 15 10 8 0 15 -4 15 -10z m30 0
c0 -5 -4 -10 -10 -10 -5 0 -10 5 -10 10 0 6 5 10 10 10 6 0 10 -4 10 -10z"/>
<path d="M698 253 c7 -3 16 -2 19 1 4 3 -2 6 -13 5 -11 0 -14 -3 -6 -6z"/>
<path d="M1082 240 c0 -14 2 -19 5 -12 2 6 2 18 0 25 -3 6 -5 1 -5 -13z"/>
<path d="M1161 244 c0 -11 3 -14 6 -6 3 7 2 16 -1 19 -3 4 -6 -2 -5 -13z"/>
<path d="M561 204 c0 -11 3 -14 6 -6 3 7 2 16 -1 19 -3 4 -6 -2 -5 -13z"/>
<path d="M1080 199 c0 -5 7 -12 15 -15 11 -4 13 -13 9 -28 -6 -18 -5 -19 9 -8
19 16 11 49 -14 55 -10 3 -19 1 -19 -4z"/>
<path d="M980 179 c0 -5 5 -7 10 -4 6 3 10 8 10 11 0 2 -4 4 -10 4 -5 0 -10
-5 -10 -11z"/>
<path d="M835 171 c-3 -5 -2 -12 3 -15 5 -3 9 1 9 9 0 17 -3 19 -12 6z"/>
<path d="M975 140 c-3 -5 -1 -10 4 -10 6 0 11 5 11 10 0 6 -2 10 -4 10 -3 0
-8 -4 -11 -10z"/>
<path d="M1085 80 c-3 -5 1 -10 9 -10 9 0 16 5 16 10 0 6 -4 10 -9 10 -6 0
-13 -4 -16 -10z"/>
</g>
</svg>
